<svg width="102" height="86" fill="none" xmlns="http://www.w3.org/2000/svg"><path d="m17.202.381-.538.43-.065 4.524-.064 4.545-3.985.064c-5.213.087-4.825-.323-4.825 5.148v4.071H4.602c-3.382 0-4.028.151-4.394 1.056-.173.387-.237 8.917-.194 28.82l.065 28.26.452.473c.41.41 1.185.517 7.323 1.185 18.567 2.003 32.439 4.092 37.134 5.6 1.723.56 2.068.603 5.816.603 3.704 0 4.114-.043 5.708-.56 4.825-1.572 18.373-3.618 37.328-5.643 6.095-.646 6.806-.776 7.215-1.185l.474-.474.065-28.432.043-28.432-.625-.646-.625-.625h-6.505V15.2c0-2.175-.064-4.135-.129-4.33-.323-.796-1.206-.969-5.04-.969h-3.662v-4.2c0-6.354-.086-6.419-5.363-4.846-4.437 1.357-7.733 2.65-12.191 4.846-6.182 3.037-10.425 5.945-14.625 10.016l-2.111 2.068-1.336-1.379c-5.923-6.203-15.228-11.588-26.17-15.142C19.162-.05 17.956-.244 17.202.381Zm6.053 4.545c7.733 2.628 14.948 6.44 20.031 10.533.884.71 2.564 2.283 3.705 3.467l2.09 2.198V48.78c0 15.228-.065 27.678-.13 27.678-.064 0-.904-.624-1.873-1.357-4.976-3.877-10.189-7.15-15.121-9.542-3.92-1.895-6.354-2.778-9.477-3.424l-2.37-.474-.064-28.906c-.022-15.875-.022-28.885.021-28.885.065 0 1.486.474 3.188 1.056Zm58.285 27.85-.086 28.885-2.347.474c-6.57 1.357-14.884 5.664-23.63 12.255-1.507 1.142-2.8 2.068-2.864 2.068-.043 0-.086-12.45-.086-27.678V21.123l2.003-2.089c5.557-5.815 13.247-10.403 23.521-14 1.788-.625 3.296-1.142 3.403-1.142.087-.022.13 12.988.087 28.884Zm-64.962-4.308c.021 8.336.043 19.774.064 25.439l.022 10.317.474.366c.323.258 1.184.474 2.714.646 4.114.453 8.508 2.09 13.828 5.084 4.07 2.304 12.6 8.141 12.32 8.443-.043.043-.56-.13-1.12-.366-2.347-1.013-11.868-4.416-15.702-5.622-6.548-2.046-13.419-3.619-17.145-3.899l-.754-.064-.065-27.743-.043-27.721h5.385l.022 15.12ZM90.393 41.07l-.064 27.743-1.724.172c-5.945.582-16.499 3.554-27.785 7.862-5.902 2.24-5.514 2.11-4.74 1.443 1.25-1.077 6.269-4.61 8.897-6.225 6.785-4.221 12.492-6.505 17.317-6.914 1.142-.108 1.831-.28 2.154-.538l.496-.388V51.86c0-6.785.021-18.222.064-25.438l.043-13.074h5.385l-.043 27.721ZM7.725 46.82c0 24.146 0 24.189.452 24.77.367.453.625.56 1.443.56 4.675 0 12.515 1.831 22.66 5.277 4.652 1.594 6.16 2.176 4.954 1.96-2.132-.409-3.339-.603-6.57-1.076-5.535-.819-13.052-1.745-20.247-2.52-3.554-.367-6.59-.711-6.72-.754-.215-.065-.28-5.493-.28-26.257V22.61h4.308v24.21Zm90.465 1.96c0 20.764-.064 26.192-.258 26.257-.15.043-2.757.344-5.773.667-7.323.754-18.114 2.111-23.133 2.908-2.24.366-4.222.646-4.415.625-.496 0 4.35-1.723 9.132-3.231 7.194-2.262 12.622-3.468 16.93-3.77 1.917-.129 2.283-.215 2.714-.646l.495-.495V22.61h4.308v26.17Z" fill="#fff" fill-opacity=".29"/></svg>