<svg aria-hidden="true" style="position: absolute; width: 0; height: 0; overflow: hidden;" version="1.1" xmlns="http://www.w3.org/2000/svg" xmlns:xlink="http://www.w3.org/1999/xlink">
<defs>
<symbol id="icon-book" viewBox="0 0 45 32">
<path fill="#0d5ff9" style="fill: var(--color1, #0d5ff9)" d="M9.749 0.71c-1.454 0.091-2.808 0.303-4.117 0.628l0.156-0.033c-0.953 0.242-1.078 0.392-1.12 1.286l-0.033 0.619h-1.518c-1.621 0-1.739 0.033-1.963 0.476-0.142 0.275-0.125 26.89 0.017 27.172 0.058 0.118 0.242 0.277 0.409 0.36l0.309 0.15 1.069-0.459c5.664-2.414 11.912-2.941 18.336-1.554l1.145 0.25 1.11-0.242c1.189-0.272 2.664-0.511 4.164-0.663l0.163-0.013c1.921-0.167 5.43-0.067 7.091 0.217 2.783 0.459 4.846 1.060 7.034 2.022 1.069 0.476 1.286 0.484 1.621 0.083l0.209-0.25v-13.44c0-14.627 0.025-13.792-0.459-14.010-0.143-0.065-0.736-0.099-1.713-0.099h-1.505v-0.636c0-0.71-0.075-0.902-0.401-1.069-0.602-0.301-2.874-0.685-4.786-0.793-4.863-0.292-8.914 0.902-11.896 3.492l-0.659 0.576-0.602-0.561c-1.77-1.656-4.351-2.833-7.256-3.3-0.786-0.127-3.009-0.309-3.469-0.284-0.117 0-0.718 0.033-1.336 0.075zM14.368 2.616c2.773 0.526 4.845 1.519 6.532 3.115l0.71 0.668v10.31c0 5.671-0.017 10.307-0.042 10.307s-0.2-0.1-0.401-0.225c-1.37-0.87-3.726-1.663-5.997-2.022-2.541-0.409-4.829-0.442-8.195-0.125l-0.653 0.058v-21.802l0.693-0.134c0.56-0.112 1.349-0.233 2.147-0.328l0.167-0.016c0.16-0.017 1.162-0.025 2.214-0.008 1.512 0.017 2.115 0.067 2.824 0.202zM36.779 2.574c0.511 0.075 1.112 0.184 1.336 0.242l0.41 0.1 0.025 10.893 0.017 10.893-0.643-0.058c-1.906-0.175-2.616-0.217-3.918-0.217-3.834 0-7.208 0.726-9.864 2.129l-0.861 0.452v-20.6l0.568-0.559c1.948-1.913 4.227-2.89 7.994-3.425 0.593-0.083 4.060 0.025 4.936 0.15zM4.737 15.43v10.549l0.174 0.193c0.269 0.284 0.501 0.342 1.095 0.25 1.252-0.185 3.409-0.327 4.953-0.327 2.297 0 4.227 0.25 6.056 0.786l0.71 0.209-0.793-0.058c-1.252-0.092-4.878-0.058-5.889 0.050-2.598 0.301-5.395 0.977-7.743 1.878l-0.569 0.218v-24.299h2.005v10.549zM42.159 17.032v12.146l-0.559-0.217c-2.536-0.982-5.476-1.675-8.538-1.946l-0.124-0.009c-1.145-0.092-4.303-0.058-5.398 0.050-0.316 0.033-0.266 0.008 0.294-0.167 0.935-0.284 2.581-0.601 3.759-0.719 1.252-0.125 4.953-0.049 6.349 0.125 1.194 0.16 1.663 0.167 1.896 0.042 0.409-0.216 0.401 0.083 0.401-11.059v-10.399h1.92v12.153z"></path>
</symbol>
<symbol id="icon-buy" viewBox="0 0 30 32">
<path d="M13.874 0.085c-2.579 0.324-4.549 2.441-4.549 4.904v0.529l-0.961 0.021c-0.921 0.015-0.983 0.020-1.26 0.154-0.577 0.266-0.997 0.789-1.117 1.417l-0.002 0.012c-0.088 0.524-0.987 13.412-0.956 13.72 0.062 0.628 0.585 1.311 1.203 1.557l0.293 0.119h15.987l0.293-0.119c0.616-0.247 1.141-0.93 1.203-1.557 0.031-0.308-0.869-13.191-0.955-13.715-0.035-0.201-0.093-0.38-0.171-0.548l0.006 0.013c-0.168-0.344-0.575-0.725-0.929-0.889-0.308-0.145-0.35-0.149-1.28-0.166l-0.967-0.020v-0.415c-0.005-1.244-0.565-2.556-1.491-3.487-0.808-0.837-1.896-1.399-3.113-1.534l-0.023-0.002c-0.177-0.027-0.381-0.042-0.588-0.042-0.219 0-0.434 0.017-0.644 0.050l0.023-0.003zM15.417 1.807c1.496 0.379 2.647 1.835 2.647 3.346v0.376h-7.093v-0.376c0-0.21 0.046-0.555 0.097-0.766 0.404-1.56 1.799-2.693 3.459-2.693 0.317 0 0.624 0.041 0.916 0.119l-0.025-0.006zM9.351 9.343l-0.036 2.175 0.117 0.175c0.174 0.251 0.36 0.37 0.622 0.401 0.297 0.036 0.607-0.119 0.766-0.38l0.123-0.196 0.015-2.175 0.015-2.169h7.084l0.015 2.169 0.015 2.175 0.123 0.196c0.144 0.232 0.397 0.383 0.685 0.383 0.028 0 0.056-0.001 0.084-0.004l-0.003 0c0.257-0.024 0.448-0.148 0.616-0.395 0.114-0.169 0.114-0.175 0.114-2.344v-2.18h0.798c0.766 0 0.796 0.005 0.869 0.113 0.056 0.088 0.19 1.748 0.545 6.771l0.472 6.657-0.113 0.092c-0.108 0.087-0.462 0.092-7.763 0.092-7.298 0-7.654-0.006-7.762-0.092l-0.113-0.092 0.473-6.657c0.356-5.023 0.488-6.683 0.545-6.771 0.071-0.107 0.097-0.113 0.9-0.113h0.827l-0.036 2.169z"></path>
<path fill="none" stroke="#000" style="stroke: var(--color2, #000)" stroke-linejoin="miter" stroke-linecap="butt" stroke-miterlimit="4" stroke-width="1.1852" d="M5.984 7.123c-0.088 0.524-0.987 13.412-0.956 13.72M5.984 7.123c0.107-0.616 0.524-1.152 1.12-1.429l-2.076 15.149M5.984 7.123l0.584 0.097M5.984 7.123l0.583 0.102v-0.005M5.026 20.843c0.063 0.628 0.587 1.311 1.204 1.557l-1.203-1.557zM6.567 7.22l-0.005 0.050-0.014 0.145c-0.012 0.12-0.025 0.283-0.041 0.484-0.033 0.402-0.075 0.948-0.123 1.591-0.077 0.356-0.34 4.071-0.582 7.793l-0.153 2.939c-0.007 0.098-0.018 0.301-0.027 0.504l-0.003 0.080c0.023 0.175 0.113 0.392 0.271 0.597 0.164 0.213 0.367 0.371 0.561 0.448l0.187 0.076h15.757l0.186-0.075 0.002-0.001c0.193-0.077 0.397-0.236 0.559-0.448 0.135-0.165 0.231-0.368 0.27-0.59l0.001-0.008v-0.012l-0.005-0.123c-0.065-1.266-0.108-1.956-0.153-2.645l0.035 0.656c-0.377-6.218-0.605-9.398-0.848-12.574l0.208 3.385c-0.112-1.602-0.171-2.318-0.233-3.033l0.067 0.961c-0.008-0.094-0.013-0.143-0.019-0.192l0.004 0.049-0.006-0.051 0.585-0.097M6.568 7.22c0.075-0.415 0.359-0.791 0.786-0.99l0.007-0.004c0.058-0.035 0.127-0.059 0.201-0.066l0.002-0c0.127-0.015 0.334-0.021 0.809-0.028h0.002l1.542-0.033v-1.109c0-2.137 1.719-4.026 4.030-4.316 0.165-0.027 0.354-0.042 0.548-0.042 0.182 0 0.361 0.014 0.536 0.040l-0.020-0.002c1.102 0.121 2.069 0.621 2.784 1.365l0.001 0.002c0.823 0.826 1.316 1.99 1.319 3.070v0.994l0.581 0.012 0.968 0.021c0.482 0.007 0.684 0.013 0.808 0.028 0.073 0.009 0.095 0.017 0.231 0.081h0.001c0.107 0.050 0.244 0.143 0.376 0.269 0.134 0.127 0.228 0.254 0.273 0.344l0.012 0.024 0.014 0.034 0.033 0.096c0.024 0.077 0.043 0.158 0.053 0.219l0.584-0.1M23.051 7.128c0.087 0.524 0.986 13.407 0.955 13.715l-5.787-19.226c0.924 0.93 1.485 2.241 1.49 3.486v0.416l0.967 0.021c0.93 0.015 0.972 0.020 1.28 0.165 0.354 0.164 0.761 0.545 0.93 0.889 0.062 0.113 0.134 0.356 0.165 0.535zM15.561 1.233c1.751 0.446 3.093 2.131 3.093 3.921v0.968h-8.277v-0.968c0-0.264 0.053-0.657 0.114-0.905l0.002-0.007c0.472-1.818 2.098-3.139 4.033-3.139 0.368 0 0.724 0.048 1.064 0.137l-0.029-0.006zM10.124 11.505h0.002c0.003 0 0.006 0 0.009 0 0.075 0 0.142-0.039 0.179-0.099l0.001-0.001 0.005-0.008 0.033-0.052 0.014-2.005 0.015-2.169 0.005-0.589h8.26l0.005 0.589 0.015 2.169 0.014 2.005 0.033 0.052 0.005 0.008c0.044 0.071 0.13 0.107 0.19 0.1h0.012c0.029-0.001 0.057-0.010 0.080-0.024l-0.001 0c0.037-0.027 0.068-0.060 0.093-0.097l0.001-0.001c0.002-0.024 0.006-0.066 0.009-0.135 0.013-0.276 0.013-0.799 0.013-1.894v-2.772h1.395c0.357 0 0.606 0 0.767 0.021 0.132 0.015 0.252 0.057 0.357 0.121l-0.004-0.002c0.136 0.085 0.21 0.197 0.235 0.235l0.002 0.002 0.004 0.007c0.043 0.064 0.075 0.14 0.092 0.221l0.001 0.004c0.008 0.038 0.015 0.078 0.021 0.116 0.012 0.078 0.024 0.18 0.038 0.307 0.026 0.254 0.059 0.633 0.103 1.161 0.084 1.056 0.206 2.729 0.384 5.24l0.474 6.657 0.020 0.307-0.35 0.287-0.002 0.001c-0.19 0.153-0.414 0.171-0.558 0.181-0.186 0.015-0.487 0.024-0.992 0.030-1.019 0.012-2.938 0.014-6.585 0.014-3.648 0-5.567-0.001-6.586-0.014-0.505-0.006-0.806-0.014-0.991-0.030-0.146-0.012-0.371-0.028-0.558-0.181l-0.002-0.001-0.114-0.092-0.237-0.194 0.021-0.307 0.474-6.657c0.177-2.51 0.299-4.184 0.384-5.241 0.041-0.527 0.076-0.907 0.102-1.161 0.014-0.126 0.026-0.228 0.038-0.306 0.012-0.076 0.027-0.141 0.046-0.204l-0.003 0.012c0.019-0.057 0.043-0.106 0.073-0.152l-0.002 0.003 0.005-0.007s0-0.002 0.002-0.004c0.129-0.198 0.343-0.332 0.589-0.352l0.003-0c0.162-0.021 0.42-0.021 0.796-0.021h1.432l-0.009 0.602-0.036 2.169-0.033 1.989 0.012 0.017c0.029 0.047 0.066 0.087 0.108 0.119l0.001 0.001c0.027 0.016 0.058 0.026 0.092 0.027l0 0z"></path>
</symbol>
<symbol id="icon-search" viewBox="0 0 34 32">
<path d="M12.443 0.070c-3.212 0.341-6.040 1.765-8.16 3.894l-0 0c-1.536 1.539-2.574 3.214-3.237 5.227-0.419 1.213-0.661 2.61-0.661 4.064s0.242 2.851 0.688 4.154l-0.027-0.090c0.676 2.059 1.793 3.816 3.245 5.229l0.003 0.003c3.050 3.034 7.205 4.41 11.491 3.803 2.344-0.346 4.431-1.242 6.192-2.552l-0.036 0.026c0.187-0.144 0.355-0.25 0.381-0.243 0.024 0.013 1.917 1.862 4.205 4.112 2.605 2.565 4.248 4.134 4.398 4.203 0.127 0.062 0.275 0.098 0.433 0.098 0.5 0 0.915-0.366 0.991-0.844l0.001-0.006c0.101-0.523 0.45-0.149-6.397-6.912l-2.138-2.115 0.362-0.424c1.563-1.808 2.594-4.096 2.987-6.597 0.15-0.976 0.15-2.763 0-3.752-0.443-2.869-1.699-5.333-3.792-7.413-2.447-2.433-5.821-3.936-9.545-3.936-0.487 0-0.968 0.026-1.442 0.076l0.059-0.005zM15.435 2.165c2.525 0.368 4.742 1.469 6.499 3.219 2.149 2.158 3.267 4.84 3.267 7.872 0 1.12-0.101 1.888-0.363 2.858-1.323 4.928-5.816 8.334-10.989 8.334-3.082 0-5.942-1.168-8.080-3.307-1.377-1.359-2.401-3.073-2.924-4.994l-0.018-0.078c-0.462-1.731-0.462-3.894 0-5.626 1.085-3.929 4.131-6.956 7.993-7.993l0.079-0.018c1.424-0.368 3.168-0.475 4.536-0.269z"></path>
</symbol>
<symbol id="icon-arrow-down" viewBox="0 0 32 32">
<path fill="#4c5664" style="fill: var(--color1, #4c5664)" d="M15.724 19.867l-5.469-5.469 1.824-1.822 3.645 3.646 3.645-3.646 1.824 1.822-5.469 5.469z"></path>
</symbol>
<symbol id="icon-arrow" viewBox="0 0 55 32">
<path fill="#0d5ff9" style="fill: var(--color1, #0d5ff9)" d="M4.649 2.363c-1.046 0.269-1.89 0.971-2.345 1.899l-0.009 0.021c-0.171 0.327-0.272 0.714-0.272 1.125 0 0.083 0.004 0.166 0.012 0.247l-0.001-0.010c0 1.509-0.928 0.489 11.515 12.631 7.502 7.319 11.2 10.866 11.502 11.026 0.473 0.258 1.037 0.409 1.636 0.409 0.222 0 0.439-0.021 0.649-0.061l-0.022 0.003c0.325-0.069 0.8-0.229 1.042-0.352 0.297-0.16 4-3.703 11.502-11.026 12.443-12.142 11.515-11.122 11.515-12.631 0.005-0.063 0.008-0.135 0.008-0.209 0-0.428-0.105-0.831-0.29-1.186l0.007 0.014c-0.593-1.178-1.793-1.972-3.178-1.972-0.569 0-1.106 0.134-1.583 0.372l0.021-0.009c-0.251 0.123-3.749 3.461-10.011 9.559l-9.65 9.385-9.632-9.385c-6.299-6.126-9.769-9.435-10.025-9.559-0.481-0.232-1.046-0.367-1.642-0.367-0.267 0-0.527 0.027-0.778 0.079l0.025-0.004z"></path>
</symbol>
</defs>
</svg>
