<svg aria-hidden="true" style="position: absolute; width: 0; height: 0; overflow: hidden;" version="1.1" xmlns="http://www.w3.org/2000/svg" xmlns:xlink="http://www.w3.org/1999/xlink">
<defs>
<symbol id="icon-book" viewBox="0 0 45 32">
<path fill="#0d5ff9" style="fill: var(--color1, #0d5ff9)" d="M9.749 0.71c-1.454 0.091-2.808 0.303-4.117 0.628l0.156-0.033c-0.953 0.242-1.078 0.392-1.12 1.286l-0.033 0.619h-1.518c-1.621 0-1.739 0.033-1.963 0.476-0.142 0.275-0.125 26.89 0.017 27.172 0.058 0.118 0.242 0.277 0.409 0.36l0.309 0.15 1.069-0.459c5.664-2.414 11.912-2.941 18.336-1.554l1.145 0.25 1.11-0.242c1.189-0.272 2.664-0.511 4.164-0.663l0.163-0.013c1.921-0.167 5.43-0.067 7.091 0.217 2.783 0.459 4.846 1.060 7.034 2.022 1.069 0.476 1.286 0.484 1.621 0.083l0.209-0.25v-13.44c0-14.627 0.025-13.792-0.459-14.010-0.143-0.065-0.736-0.099-1.713-0.099h-1.505v-0.636c0-0.71-0.075-0.902-0.401-1.069-0.602-0.301-2.874-0.685-4.786-0.793-4.863-0.292-8.914 0.902-11.896 3.492l-0.659 0.576-0.602-0.561c-1.77-1.656-4.351-2.833-7.256-3.3-0.786-0.127-3.009-0.309-3.469-0.284-0.117 0-0.718 0.033-1.336 0.075zM14.368 2.616c2.773 0.526 4.845 1.519 6.532 3.115l0.71 0.668v10.31c0 5.671-0.017 10.307-0.042 10.307s-0.2-0.1-0.401-0.225c-1.37-0.87-3.726-1.663-5.997-2.022-2.541-0.409-4.829-0.442-8.195-0.125l-0.653 0.058v-21.802l0.693-0.134c0.56-0.112 1.349-0.233 2.147-0.328l0.167-0.016c0.16-0.017 1.162-0.025 2.214-0.008 1.512 0.017 2.115 0.067 2.824 0.202zM36.779 2.574c0.511 0.075 1.112 0.184 1.336 0.242l0.41 0.1 0.025 10.893 0.017 10.893-0.643-0.058c-1.906-0.175-2.616-0.217-3.918-0.217-3.834 0-7.208 0.726-9.864 2.129l-0.861 0.452v-20.6l0.568-0.559c1.948-1.913 4.227-2.89 7.994-3.425 0.593-0.083 4.060 0.025 4.936 0.15zM4.737 15.43v10.549l0.174 0.193c0.269 0.284 0.501 0.342 1.095 0.25 1.252-0.185 3.409-0.327 4.953-0.327 2.297 0 4.227 0.25 6.056 0.786l0.71 0.209-0.793-0.058c-1.252-0.092-4.878-0.058-5.889 0.050-2.598 0.301-5.395 0.977-7.743 1.878l-0.569 0.218v-24.299h2.005v10.549zM42.159 17.032v12.146l-0.559-0.217c-2.536-0.982-5.476-1.675-8.538-1.946l-0.124-0.009c-1.145-0.092-4.303-0.058-5.398 0.050-0.316 0.033-0.266 0.008 0.294-0.167 0.935-0.284 2.581-0.601 3.759-0.719 1.252-0.125 4.953-0.049 6.349 0.125 1.194 0.16 1.663 0.167 1.896 0.042 0.409-0.216 0.401 0.083 0.401-11.059v-10.399h1.92v12.153z"></path>
</symbol>
<symbol id="icon-buy" viewBox="0 0 30 32">
<path d="M13.874 0.085c-2.579 0.324-4.549 2.441-4.549 4.904v0.529l-0.961 0.021c-0.921 0.015-0.983 0.020-1.26 0.154-0.577 0.266-0.997 0.789-1.117 1.417l-0.002 0.012c-0.088 0.524-0.987 13.412-0.956 13.72 0.062 0.628 0.585 1.311 1.203 1.557l0.293 0.119h15.987l0.293-0.119c0.616-0.247 1.141-0.93 1.203-1.557 0.031-0.308-0.869-13.191-0.955-13.715-0.035-0.201-0.093-0.38-0.171-0.548l0.006 0.013c-0.168-0.344-0.575-0.725-0.929-0.889-0.308-0.145-0.35-0.149-1.28-0.166l-0.967-0.020v-0.415c-0.005-1.244-0.565-2.556-1.491-3.487-0.808-0.837-1.896-1.399-3.113-1.534l-0.023-0.002c-0.177-0.027-0.381-0.042-0.588-0.042-0.219 0-0.434 0.017-0.644 0.050l0.023-0.003zM15.417 1.807c1.496 0.379 2.647 1.835 2.647 3.346v0.376h-7.093v-0.376c0-0.21 0.046-0.555 0.097-0.766 0.404-1.56 1.799-2.693 3.459-2.693 0.317 0 0.624 0.041 0.916 0.119l-0.025-0.006zM9.351 9.343l-0.036 2.175 0.117 0.175c0.174 0.251 0.36 0.37 0.622 0.401 0.297 0.036 0.607-0.119 0.766-0.38l0.123-0.196 0.015-2.175 0.015-2.169h7.084l0.015 2.169 0.015 2.175 0.123 0.196c0.144 0.232 0.397 0.383 0.685 0.383 0.028 0 0.056-0.001 0.084-0.004l-0.003 0c0.257-0.024 0.448-0.148 0.616-0.395 0.114-0.169 0.114-0.175 0.114-2.344v-2.18h0.798c0.766 0 0.796 0.005 0.869 0.113 0.056 0.088 0.19 1.748 0.545 6.771l0.472 6.657-0.113 0.092c-0.108 0.087-0.462 0.092-7.763 0.092-7.298 0-7.654-0.006-7.762-0.092l-0.113-0.092 0.473-6.657c0.356-5.023 0.488-6.683 0.545-6.771 0.071-0.107 0.097-0.113 0.9-0.113h0.827l-0.036 2.169z"></path>
<path fill="none" stroke="#000" style="stroke: var(--color2, #000)" stroke-linejoin="miter" stroke-linecap="butt" stroke-miterlimit="4" stroke-width="1.1852" d="M5.984 7.123c-0.088 0.524-0.987 13.412-0.956 13.72M5.984 7.123c0.107-0.616 0.524-1.152 1.12-1.429l-2.076 15.149M5.984 7.123l0.584 0.097M5.984 7.123l0.583 0.102v-0.005M5.026 20.843c0.063 0.628 0.587 1.311 1.204 1.557l-1.203-1.557zM6.567 7.22l-0.005 0.050-0.014 0.145c-0.012 0.12-0.025 0.283-0.041 0.484-0.033 0.402-0.075 0.948-0.123 1.591-0.077 0.356-0.34 4.071-0.582 7.793l-0.153 2.939c-0.007 0.098-0.018 0.301-0.027 0.504l-0.003 0.080c0.023 0.175 0.113 0.392 0.271 0.597 0.164 0.213 0.367 0.371 0.561 0.448l0.187 0.076h15.757l0.186-0.075 0.002-0.001c0.193-0.077 0.397-0.236 0.559-0.448 0.135-0.165 0.231-0.368 0.27-0.59l0.001-0.008v-0.012l-0.005-0.123c-0.065-1.266-0.108-1.956-0.153-2.645l0.035 0.656c-0.377-6.218-0.605-9.398-0.848-12.574l0.208 3.385c-0.112-1.602-0.171-2.318-0.233-3.033l0.067 0.961c-0.008-0.094-0.013-0.143-0.019-0.192l0.004 0.049-0.006-0.051 0.585-0.097M6.568 7.22c0.075-0.415 0.359-0.791 0.786-0.99l0.007-0.004c0.058-0.035 0.127-0.059 0.201-0.066l0.002-0c0.127-0.015 0.334-0.021 0.809-0.028h0.002l1.542-0.033v-1.109c0-2.137 1.719-4.026 4.030-4.316 0.165-0.027 0.354-0.042 0.548-0.042 0.182 0 0.361 0.014 0.536 0.040l-0.020-0.002c1.102 0.121 2.069 0.621 2.784 1.365l0.001 0.002c0.823 0.826 1.316 1.99 1.319 3.070v0.994l0.581 0.012 0.968 0.021c0.482 0.007 0.684 0.013 0.808 0.028 0.073 0.009 0.095 0.017 0.231 0.081h0.001c0.107 0.050 0.244 0.143 0.376 0.269 0.134 0.127 0.228 0.254 0.273 0.344l0.012 0.024 0.014 0.034 0.033 0.096c0.024 0.077 0.043 0.158 0.053 0.219l0.584-0.1M23.051 7.128c0.087 0.524 0.986 13.407 0.955 13.715l-5.787-19.226c0.924 0.93 1.485 2.241 1.49 3.486v0.416l0.967 0.021c0.93 0.015 0.972 0.020 1.28 0.165 0.354 0.164 0.761 0.545 0.93 0.889 0.062 0.113 0.134 0.356 0.165 0.535zM15.561 1.233c1.751 0.446 3.093 2.131 3.093 3.921v0.968h-8.277v-0.968c0-0.264 0.053-0.657 0.114-0.905l0.002-0.007c0.472-1.818 2.098-3.139 4.033-3.139 0.368 0 0.724 0.048 1.064 0.137l-0.029-0.006zM10.124 11.505h0.002c0.003 0 0.006 0 0.009 0 0.075 0 0.142-0.039 0.179-0.099l0.001-0.001 0.005-0.008 0.033-0.052 0.014-2.005 0.015-2.169 0.005-0.589h8.26l0.005 0.589 0.015 2.169 0.014 2.005 0.033 0.052 0.005 0.008c0.044 0.071 0.13 0.107 0.19 0.1h0.012c0.029-0.001 0.057-0.010 0.080-0.024l-0.001 0c0.037-0.027 0.068-0.060 0.093-0.097l0.001-0.001c0.002-0.024 0.006-0.066 0.009-0.135 0.013-0.276 0.013-0.799 0.013-1.894v-2.772h1.395c0.357 0 0.606 0 0.767 0.021 0.132 0.015 0.252 0.057 0.357 0.121l-0.004-0.002c0.136 0.085 0.21 0.197 0.235 0.235l0.002 0.002 0.004 0.007c0.043 0.064 0.075 0.14 0.092 0.221l0.001 0.004c0.008 0.038 0.015 0.078 0.021 0.116 0.012 0.078 0.024 0.18 0.038 0.307 0.026 0.254 0.059 0.633 0.103 1.161 0.084 1.056 0.206 2.729 0.384 5.24l0.474 6.657 0.020 0.307-0.35 0.287-0.002 0.001c-0.19 0.153-0.414 0.171-0.558 0.181-0.186 0.015-0.487 0.024-0.992 0.030-1.019 0.012-2.938 0.014-6.585 0.014-3.648 0-5.567-0.001-6.586-0.014-0.505-0.006-0.806-0.014-0.991-0.030-0.146-0.012-0.371-0.028-0.558-0.181l-0.002-0.001-0.114-0.092-0.237-0.194 0.021-0.307 0.474-6.657c0.177-2.51 0.299-4.184 0.384-5.241 0.041-0.527 0.076-0.907 0.102-1.161 0.014-0.126 0.026-0.228 0.038-0.306 0.012-0.076 0.027-0.141 0.046-0.204l-0.003 0.012c0.019-0.057 0.043-0.106 0.073-0.152l-0.002 0.003 0.005-0.007s0-0.002 0.002-0.004c0.129-0.198 0.343-0.332 0.589-0.352l0.003-0c0.162-0.021 0.42-0.021 0.796-0.021h1.432l-0.009 0.602-0.036 2.169-0.033 1.989 0.012 0.017c0.029 0.047 0.066 0.087 0.108 0.119l0.001 0.001c0.027 0.016 0.058 0.026 0.092 0.027l0 0z"></path>
</symbol>
<symbol id="icon-search" viewBox="0 0 34 32">
<path d="M12.443 0.070c-3.212 0.341-6.040 1.765-8.16 3.894l-0 0c-1.536 1.539-2.574 3.214-3.237 5.227-0.419 1.213-0.661 2.61-0.661 4.064s0.242 2.851 0.688 4.154l-0.027-0.090c0.676 2.059 1.793 3.816 3.245 5.229l0.003 0.003c3.050 3.034 7.205 4.41 11.491 3.803 2.344-0.346 4.431-1.242 6.192-2.552l-0.036 0.026c0.187-0.144 0.355-0.25 0.381-0.243 0.024 0.013 1.917 1.862 4.205 4.112 2.605 2.565 4.248 4.134 4.398 4.203 0.127 0.062 0.275 0.098 0.433 0.098 0.5 0 0.915-0.366 0.991-0.844l0.001-0.006c0.101-0.523 0.45-0.149-6.397-6.912l-2.138-2.115 0.362-0.424c1.563-1.808 2.594-4.096 2.987-6.597 0.15-0.976 0.15-2.763 0-3.752-0.443-2.869-1.699-5.333-3.792-7.413-2.447-2.433-5.821-3.936-9.545-3.936-0.487 0-0.968 0.026-1.442 0.076l0.059-0.005zM15.435 2.165c2.525 0.368 4.742 1.469 6.499 3.219 2.149 2.158 3.267 4.84 3.267 7.872 0 1.12-0.101 1.888-0.363 2.858-1.323 4.928-5.816 8.334-10.989 8.334-3.082 0-5.942-1.168-8.080-3.307-1.377-1.359-2.401-3.073-2.924-4.994l-0.018-0.078c-0.462-1.731-0.462-3.894 0-5.626 1.085-3.929 4.131-6.956 7.993-7.993l0.079-0.018c1.424-0.368 3.168-0.475 4.536-0.269z"></path>
</symbol>
<symbol id="icon-arrow-down" viewBox="0 0 32 32">
<path fill="#4c5664" style="fill: var(--color1, #4c5664)" d="M15.724 19.867l-5.469-5.469 1.824-1.822 3.645 3.646 3.645-3.646 1.824 1.822-5.469 5.469z"></path>
</symbol>
<symbol id="icon-arrow" viewBox="0 0 55 32">
<path fill="#0d5ff9" style="fill: var(--color1, #0d5ff9)" d="M4.649 2.363c-1.046 0.269-1.89 0.971-2.345 1.899l-0.009 0.021c-0.171 0.327-0.272 0.714-0.272 1.125 0 0.083 0.004 0.166 0.012 0.247l-0.001-0.010c0 1.509-0.928 0.489 11.515 12.631 7.502 7.319 11.2 10.866 11.502 11.026 0.473 0.258 1.037 0.409 1.636 0.409 0.222 0 0.439-0.021 0.649-0.061l-0.022 0.003c0.325-0.069 0.8-0.229 1.042-0.352 0.297-0.16 4-3.703 11.502-11.026 12.443-12.142 11.515-11.122 11.515-12.631 0.005-0.063 0.008-0.135 0.008-0.209 0-0.428-0.105-0.831-0.29-1.186l0.007 0.014c-0.593-1.178-1.793-1.972-3.178-1.972-0.569 0-1.106 0.134-1.583 0.372l0.021-0.009c-0.251 0.123-3.749 3.461-10.011 9.559l-9.65 9.385-9.632-9.385c-6.299-6.126-9.769-9.435-10.025-9.559-0.481-0.232-1.046-0.367-1.642-0.367-0.267 0-0.527 0.027-0.778 0.079l0.025-0.004z"></path>
</symbol>
<symbol id="icon-student" viewBox="0 0 32 32">
<path fill="#0d5ff9" style="fill: var(--color1, #0d5ff9)" d="M16 0c8.837 0 16 7.163 16 16s-7.163 16-16 16c-8.837 0-16-7.163-16-16s7.163-16 16-16z"></path>
<path fill="#fff" style="fill: var(--color2, #fff)" d="M12.098 9.157c-2.187 1.221-4.003 2.257-4.036 2.3-0.084 0.102-0.084 0.222 0.004 0.329 0.036 0.047 0.474 0.273 1.010 0.525l0.945 0.441 0.011 0.445 0.011 0.445h-0.204c-0.167 0-0.219 0.014-0.292 0.091l-0.091 0.087v2.851l0.091 0.087c0.087 0.091 0.095 0.091 0.784 0.091s0.697 0 0.784-0.091l0.091-0.087v-2.851l-0.091-0.087c-0.073-0.076-0.124-0.091-0.292-0.091h-0.201v-0.292c0-0.16 0.011-0.292 0.026-0.292 0.018 0 0.507 0.222 1.093 0.5 1.051 0.489 1.065 0.496 1.131 0.645 0.036 0.080 0.12 0.219 0.186 0.302 0.139 0.186 0.149 0.267 0.033 0.267-0.047 0-0.168 0.043-0.274 0.094-0.496 0.248-0.729 0.875-0.54 1.436 0.132 0.383 0.587 0.729 0.955 0.729 0.11 0 0.124 0.019 0.23 0.241 0.16 0.342 0.394 0.656 0.697 0.933l0.255 0.24v0.595l-0.094-0.073c-0.197-0.156-0.277-0.116-0.777 0.376-0.46 0.448-0.46 0.448-0.664 0.474-0.543 0.059-1.411 0.419-1.907 0.795-0.787 0.606-1.367 1.447-1.637 2.418l-0.008 0.032c-0.128 0.478-0.164 0.857-0.164 1.655 0 0.7 0 0.703 0.091 0.791l0.088 0.091h13.643l0.094-0.095 0.091-0.091-0.018-0.901c-0.014-0.795-0.029-0.948-0.109-1.286-0.215-0.901-0.623-1.619-1.291-2.26-0.326-0.322-0.707-0.59-1.127-0.788l-0.025-0.011c-0.347-0.164-0.857-0.317-1.152-0.35-0.204-0.026-0.204-0.026-0.663-0.474-0.5-0.492-0.58-0.532-0.777-0.375l-0.095 0.073v-0.594l0.255-0.241c0.286-0.258 0.52-0.568 0.689-0.916l0.008-0.018c0.106-0.222 0.12-0.241 0.229-0.241 0.369 0 0.824-0.347 0.956-0.73 0.189-0.561-0.044-1.188-0.54-1.436-0.106-0.051-0.226-0.095-0.274-0.095-0.117 0-0.106-0.087 0.022-0.251 0.059-0.073 0.142-0.208 0.186-0.303l0.084-0.167 1.098-0.51c0.605-0.281 1.648-0.77 2.318-1.083 0.74-0.343 1.254-0.605 1.306-0.66 0.157-0.179 0.087-0.347-0.222-0.517-0.102-0.059-1.451-0.813-2.997-1.674 4.026 2.052 2.784 1.349 1.54 0.648l-5.339-2.766c-0.543-0.307-1.027-0.555-1.075-0.555-0.044 0.004-1.87 1.003-4.058 2.224zM19.783 9.577c1.977 1.101 3.584 2.016 3.57 2.031-0.054 0.051-3.628 1.706-3.646 1.688-0.014-0.011-0.033-0.543-0.044-1.181l-0.018-1.159-0.099-0.124c-0.189-0.255-0.685-0.449-1.454-0.576-2.111-0.35-4.831-0.059-5.308 0.569l-0.102 0.131-0.018 1.159c-0.011 0.638-0.029 1.17-0.040 1.181s-0.467-0.19-1.013-0.445l-0.988-0.46 0.007-0.875 0.011-0.875 2.753-1.539c1.513-0.849 2.764-1.538 2.774-1.534 0.011 0 1.641 0.904 3.617 2.009zM17.531 10.758c0.609 0.073 1.353 0.259 1.506 0.379 0.029 0.026 0.044 0.183 0.044 0.555v0.521l-0.281-0.091c-0.912-0.288-2.895-0.39-4.222-0.212-0.452 0.059-1.138 0.208-1.261 0.274-0.066 0.036-0.069 0.021-0.069-0.485 0-0.379 0.014-0.535 0.047-0.561 0.167-0.135 0.9-0.314 1.538-0.375 0.222-0.018 0.467-0.044 0.547-0.051 0.259-0.026 1.812 0.011 2.151 0.047zM10.031 11.815l-0.011 0.288-0.51-0.233c-0.281-0.131-0.522-0.248-0.536-0.262s0.215-0.161 0.51-0.325l0.536-0.295 0.011 0.266c0.007 0.149 0.007 0.401 0 0.561zM17.698 12.49c0.82 0.113 1.32 0.277 1.386 0.448 0.095 0.245-0.044 0.868-0.266 1.2l-0.084 0.128-1.932-0.022-0.248-0.117c-0.409-0.193-0.733-0.597-0.81-1.006-0.040-0.204-0.146-0.317-0.295-0.317-0.182 0-0.307 0.135-0.307 0.324 0 0.237-0.139 0.547-0.335 0.755-0.244 0.259-0.467 0.35-0.886 0.372l-0.328 0.014-0.084-0.131c-0.174-0.25-0.277-0.559-0.277-0.893 0-0.004 0-0.008 0-0.011v0.001c-0.003-0.244 0.011-0.332 0.055-0.376 0.142-0.146 0.985-0.339 1.783-0.419 0.496-0.047 2.165-0.014 2.628 0.051zM16.164 14.59c0.43 0.219 0.499 0.229 1.491 0.247l0.923 0.015-0.018 0.787c-0.018 0.85-0.044 0.992-0.237 1.404-0.302 0.642-0.911 1.134-1.611 1.305-0.259 0.062-0.835 0.062-1.093 0-0.699-0.177-1.266-0.637-1.583-1.248l-0.006-0.014c-0.215-0.434-0.241-0.576-0.259-1.451l-0.018-0.791h0.186c0.565 0 1.199-0.324 1.462-0.751l0.069-0.109 0.27 0.262c0.146 0.142 0.339 0.299 0.427 0.342zM10.622 15.246v1.021h-0.583v-2.042h0.583v1.021zM13.181 15.891c0.007 0.299 0.011 0.547 0.007 0.554-0.021 0.026-0.255-0.142-0.302-0.222-0.057-0.095-0.090-0.21-0.090-0.332 0-0.053 0.006-0.104 0.018-0.153l-0.001 0.004c0.037-0.139 0.241-0.387 0.317-0.387 0.022 0 0.044 0.219 0.051 0.536zM19.354 15.475c0.201 0.201 0.237 0.507 0.087 0.748-0.047 0.080-0.281 0.248-0.302 0.222-0.029-0.040 0.029-1.090 0.058-1.090 0.022 0 0.091 0.055 0.157 0.121zM15.828 18.969c0.101 0.012 0.217 0.019 0.335 0.019 0.315 0 0.619-0.048 0.904-0.138l-0.021 0.006c0.128-0.040 0.241-0.073 0.259-0.073 0.015 0 0.026 0.193 0.026 0.43v0.427l-1.166 1.167-1.167-1.167v-0.878l0.248 0.080c0.135 0.047 0.397 0.102 0.583 0.128zM14.942 20.423l0.802 0.802-0.229 0.226-0.226 0.229-1.622-1.622 0.219-0.219c0.121-0.12 0.226-0.219 0.237-0.219s0.379 0.361 0.82 0.802zM18.442 19.839l0.219 0.219-1.622 1.622-0.226-0.229-0.229-0.226 0.802-0.802c0.441-0.441 0.809-0.802 0.82-0.802s0.116 0.099 0.237 0.219zM14.158 21.389c0.915 0.915 1.017 1.003 1.126 1.003 0.106 0 0.175-0.051 0.5-0.372l0.379-0.372 0.379 0.372c0.325 0.321 0.394 0.372 0.5 0.372 0.109 0 0.211-0.091 1.131-1.006l1.010-1.010 0.204 0.026c0.7 0.080 1.629 0.58 2.14 1.145 0.729 0.81 1.054 1.721 1.054 2.949v0.522h-2.042v-0.492c0-0.477-0.004-0.499-0.091-0.583-0.049-0.055-0.121-0.090-0.201-0.090s-0.151 0.035-0.2 0.090l-0 0c-0.087 0.084-0.091 0.106-0.091 0.583v0.492h-7.583v-0.492c0-0.477-0.004-0.499-0.091-0.583-0.049-0.056-0.121-0.090-0.201-0.090s-0.151 0.035-0.201 0.090l-0 0c-0.087 0.084-0.091 0.106-0.091 0.583v0.492h-2.053l0.021-0.685c0.015-0.572 0.033-0.736 0.11-1.039 0.386-1.469 1.462-2.538 2.887-2.866 0.379-0.087 0.299-0.142 1.404 0.963z"></path>
</symbol>
<symbol id="icon-page" viewBox="0 0 32 32">
<path fill="#0d5ff9" style="fill: var(--color1, #0d5ff9)" d="M16 0c8.837 0 16 7.163 16 16s-7.163 16-16 16c-8.837 0-16-7.163-16-16s7.163-16 16-16z"></path>
<path fill="#fff" style="fill: var(--color2, #fff)" d="M8.431 8.476c-0.363 0.116-0.732 0.452-0.873 0.801l-0.079 0.195-0.010 6.395c-0.007 6.977-0.017 6.607 0.181 6.95 0.123 0.205 0.393 0.452 0.626 0.558l0.195 0.092h12.387l0.188-0.089c0.403-0.198 0.696-0.567 0.785-1.010l0.002-0.009c0.017-0.099 0.034-0.366 0.034-0.589v-0.407h1.105c1.215 0 1.328-0.014 1.584-0.202 0.075-0.058 0.181-0.184 0.239-0.284l0.099-0.181v-0.787c0-0.886-0.010-0.927-0.28-1.187-0.254-0.246-0.267-0.246-1.574-0.26l-1.173-0.010v-0.856c0-1.026-0.017-1.091-0.305-1.091-0.066 0.005-0.125 0.034-0.167 0.078l-0 0c-0.072 0.079-0.076 0.103-0.076 0.976v0.896h-2.635c-2.169 0-2.659 0.007-2.751 0.048-0.062 0.024-0.507 0.294-0.989 0.599-0.828 0.52-0.886 0.551-1.047 0.551-0.143 0-0.181 0.014-0.239 0.089-0.092 0.12-0.092 0.226 0.007 0.339 0.058 0.072 0.12 0.096 0.28 0.116 0.189 0.024 0.281 0.075 1.109 0.595l0.903 0.572h5.369l-0.014 0.486c-0.010 0.393-0.024 0.516-0.075 0.619-0.085 0.175-0.243 0.329-0.414 0.404-0.13 0.062-0.401 0.065-6.159 0.065h-6.023l-0.175-0.082c-0.191-0.093-0.337-0.253-0.408-0.449l-0.002-0.006c-0.038-0.106-0.045-1.030-0.049-5.051v-4.917h13.311v0.893c0 0.503 0.014 0.917 0.034 0.951 0.017 0.034 0.079 0.082 0.134 0.106 0.127 0.051 0.271-0.007 0.335-0.137 0.055-0.11 0.065-4.404 0.010-4.688-0.082-0.441-0.361-0.804-0.741-0.998l-0.008-0.004-0.225-0.11-6.143-0.007c-5.013-0.004-6.169 0.003-6.286 0.037zM20.825 9.040c0.171 0.075 0.329 0.229 0.414 0.403 0.058 0.12 0.065 0.233 0.075 1.283l0.010 1.156h-13.314v-1.129c0-1.225 0.003-1.249 0.195-1.498 0.048-0.065 0.168-0.154 0.264-0.199l0.175-0.082h6.022c5.759 0 6.030 0.004 6.16 0.065zM22.45 19.908v0.907h-6.159v-0.882c0-0.486 0.010-0.897 0.024-0.907 0.010-0.014 1.396-0.024 3.079-0.024h3.055v0.907zM24.144 19.049c0.205 0.089 0.229 0.178 0.215 0.91l-0.010 0.65-0.096 0.093-0.093 0.096-1.164 0.020v-1.817h0.514c0.369 0 0.547 0.014 0.633 0.048zM15.737 20.229l-0.011 0.339-0.524-0.325-0.524-0.329 0.25-0.157c0.137-0.089 0.373-0.236 0.524-0.332l0.273-0.171 0.010 0.315c0.004 0.175 0.004 0.472 0 0.66z"></path>
<path fill="#fff" style="fill: var(--color2, #fff)" d="M9.488 9.708c-0.332 0.109-0.52 0.366-0.52 0.719 0 0.421 0.315 0.739 0.739 0.739 0.473 0 0.811-0.414 0.726-0.89-0.079-0.424-0.534-0.698-0.944-0.568zM9.843 10.292c0.085 0.089 0.089 0.178 0.007 0.281-0.048 0.061-0.25 0.054-0.301-0.007-0.068-0.082-0.051-0.229 0.034-0.298 0.103-0.082 0.158-0.079 0.26 0.024zM11.517 9.69c-0.591 0.15-0.797 0.832-0.373 1.256 0.171 0.175 0.335 0.233 0.599 0.212 0.271-0.021 0.459-0.147 0.589-0.4 0.141-0.284 0.113-0.564-0.085-0.807-0.171-0.206-0.49-0.319-0.729-0.26zM11.836 10.299c0.147 0.195-0.127 0.425-0.308 0.26-0.141-0.127-0.011-0.38 0.171-0.335 0.054 0.011 0.101 0.038 0.137 0.075l0 0zM13.458 9.69c-0.386 0.099-0.65 0.527-0.554 0.9 0.092 0.349 0.38 0.575 0.732 0.575 0.298 0 0.537-0.15 0.678-0.424 0.106-0.209 0.079-0.551-0.065-0.746-0.171-0.239-0.517-0.373-0.79-0.304zM13.752 10.262c0.086 0.058 0.106 0.243 0.034 0.315s-0.257 0.051-0.315-0.034c-0.075-0.107-0.068-0.154 0.031-0.25 0.096-0.099 0.143-0.106 0.25-0.031zM10.481 13.879c-0.147 0.158-0.068 0.4 0.147 0.455 0.048 0.010 0.188 0.014 0.315 0.007 0.185-0.010 0.236-0.028 0.287-0.092 0.089-0.11 0.082-0.281-0.014-0.373-0.069-0.065-0.12-0.075-0.37-0.075-0.26 0-0.301 0.007-0.366 0.079zM12.996 13.841c-0.092 0.075-0.133 0.226-0.085 0.329 0.089 0.181 0.007 0.178 3.014 0.178h2.802l0.099-0.099c0.123-0.123 0.127-0.25 0.014-0.363l-0.082-0.085h-2.853c-2.228 0-2.864 0.010-2.909 0.041zM21.468 15.135c-0.103 0.041-0.147 0.141-0.147 0.335 0 0.202 0.096 0.315 0.267 0.315 0.274 0 0.384-0.435 0.154-0.616-0.096-0.076-0.154-0.082-0.273-0.034zM10.481 15.692c-0.127 0.134-0.096 0.335 0.065 0.417 0.143 0.076 5.598 0.076 5.742 0 0.087-0.043 0.145-0.13 0.145-0.231 0-0.075-0.032-0.142-0.083-0.189l-0-0-0.079-0.075h-5.718l-0.072 0.079zM18.135 15.648c-0.099 0.058-0.147 0.222-0.092 0.328 0.068 0.147 0.181 0.188 0.469 0.178 0.226-0.010 0.26-0.020 0.332-0.106 0.107-0.123 0.103-0.242-0.003-0.349-0.075-0.079-0.109-0.085-0.366-0.085-0.158 0-0.308 0.017-0.339 0.034zM10.48 17.506c-0.045 0.052-0.073 0.121-0.073 0.197 0 0.049 0.012 0.096 0.033 0.137l-0.001-0.002c0.068 0.13 0.191 0.137 2.111 0.137 1.964 0 2.018-0.003 2.077-0.154 0.045-0.116 0.021-0.246-0.058-0.318l-0.079-0.075h-3.938l-0.072 0.079z"></path>
</symbol>
<symbol id="icon-player" viewBox="0 0 32 32">
<path d="M2.704 2.937c-1.131 0.268-2.087 1.229-2.325 2.337-0.099 0.456-0.099 20.991 0 21.447 0.244 1.139 1.25 2.118 2.418 2.356 0.469 0.098 26.547 0.098 27.015 0 1.168-0.238 2.174-1.217 2.418-2.355 0.1-0.456 0.1-20.991 0-21.448-0.243-1.139-1.25-2.118-2.418-2.356-0.225-0.048-1.999-0.067-5.61-0.067h-5.285l-0.212 0.207c-0.275 0.268-0.282 0.506-0.031 0.78l0.181 0.2 5.398 0.031c5.317 0.031 5.398 0.031 5.679 0.159 0.412 0.188 0.713 0.475 0.912 0.864l0.176 0.348 0.019 7.589 0.012 7.596h-29.489l0.013-7.596 0.019-7.59 0.175-0.347c0.198-0.385 0.514-0.686 0.9-0.859l0.012-0.005c0.282-0.128 0.363-0.128 5.66-0.159 2.956-0.018 5.424-0.054 5.486-0.085 0.132-0.061 0.294-0.348 0.294-0.523 0-0.201-0.162-0.456-0.344-0.536-0.238-0.109-10.614-0.091-11.071 0.013zM31.037 24.195l-0.019 2.362-0.176 0.347c-0.198 0.385-0.514 0.686-0.9 0.859l-0.012 0.005-0.287 0.128h-26.678l-0.356-0.17c-0.391-0.188-0.7-0.497-0.882-0.878l-0.005-0.011c-0.126-0.268-0.131-0.39-0.15-2.642l-0.019-2.355h29.501l-0.019 2.355z"></path>
<path d="M5.953 23.167c-1.293 0.45-1.68 1.948-0.762 2.958 0.106 0.121 0.35 0.292 0.543 0.383 0.463 0.22 1.137 0.238 1.581 0.037 0.843-0.372 1.287-1.309 1.031-2.161-0.294-0.986-1.412-1.558-2.392-1.217zM6.971 24.482c0.157 0.146 0.213 0.261 0.213 0.401 0 0.249-0.35 0.609-0.587 0.609-0.656 0-0.906-0.828-0.344-1.133 0.263-0.14 0.487-0.104 0.719 0.122zM11.438 24.36c-0.418 0.225-0.405 0.87 0.025 1.059 0.125 0.055 2.067 0.073 8.066 0.073 6.717 0 7.928-0.012 8.078-0.085 0.412-0.213 0.412-0.834 0-1.047-0.25-0.122-15.938-0.127-16.169 0zM15.893 3.058c-0.288 0.28-0.288 0.523 0 0.803 0.225 0.22 0.418 0.256 0.693 0.134 0.431-0.188 0.444-0.846 0.025-1.059-0.282-0.14-0.488-0.103-0.719 0.121zM14.319 8.87c-0.437 0.147-0.737 0.396-0.975 0.797l-0.193 0.335-0.019 2.203c-0.013 1.369 0.006 2.294 0.043 2.435 0.17 0.608 0.713 1.101 1.363 1.241 0.562 0.121 0.868 0.025 2.099-0.663 0.594-0.335 1.412-0.797 1.824-1.022 1.15-0.645 1.469-1.047 1.469-1.85 0-0.816-0.319-1.205-1.53-1.881-1.476-0.794-2.058-1.127-2.638-1.463l0.857 0.459c-1.318-0.742-1.625-0.821-2.299-0.591zM16.705 10.922c0.931 0.518 1.756 1.005 1.837 1.077 0.093 0.085 0.137 0.195 0.137 0.347s-0.043 0.261-0.137 0.347c-0.231 0.207-3.517 2.027-3.661 2.027-0.069 0-0.212-0.073-0.319-0.159l-0.193-0.158v-4.115l0.193-0.159c0.106-0.085 0.25-0.158 0.319-0.158 0.075 0 0.893 0.426 1.824 0.95z"></path>
</symbol>
<symbol id="icon-teacher" viewBox="0 0 32 32">
<path d="M15.125 0.043c-0.862 0.088-2 0.425-2.813 0.832-0.5 0.25-1.393 0.862-1.575 1.075-0.068 0.080-0.109 0.185-0.109 0.299 0 0.121 0.046 0.231 0.122 0.314l-0-0c0.212 0.213 0.462 0.163 0.969-0.213 0.905-0.663 1.994-1.131 3.176-1.319l0.042-0.006c0.763-0.112 1.294-0.112 2.113 0.013 1.581 0.231 2.806 0.837 3.888 1.912 0.256 0.256 0.556 0.513 0.663 0.569 0.294 0.15 0.744 0.688 0.95 1.124 0.319 0.688 0.387 1.219 0.387 3.144v1.726l-0.137-0.037c-0.109-0.031-0.245-0.060-0.383-0.079l-0.017-0.002-0.263-0.032-0.025-0.856c-0.018-0.525-0.062-0.912-0.112-1.018-0.081-0.176-0.506-0.425-0.725-0.425-0.363 0-0.925-0.419-1.362-1.019-0.213-0.287-0.457-0.419-0.787-0.419-0.307 0-0.394 0.043-0.97 0.476-1.513 1.124-3.325 1.6-5.362 1.405-0.463-0.043-0.969-0.062-1.119-0.037-0.856 0.144-1.587 0.787-1.831 1.612-0.069 0.238-0.1 0.269-0.319 0.3-0.131 0.019-0.337 0.056-0.444 0.081l-0.207 0.050v-0.899c0-1.808 0.263-2.957 0.944-4.125 0.137-0.238 0.244-0.5 0.244-0.606 0-0.4-0.482-0.594-0.77-0.306-0.218 0.225-0.761 1.331-0.975 2-0.281 0.882-0.381 1.813-0.381 3.463 0 0.963-0.026 1.45-0.075 1.544-0.038 0.074-0.075 0.306-0.075 0.512 0 0.906 0.694 1.65 1.65 1.763 0.331 0.037 0.337 0.050 0.406 0.488 0.062 0.4 0.337 1.206 0.543 1.618 0.503 0.979 1.219 1.785 2.091 2.38l0.022 0.014 0.438 0.288v0.787l-0.575 0.4c-0.556 0.387-0.669 0.431-2.612 1.106-1.119 0.387-2.169 0.775-2.344 0.868-0.47 0.251-0.982 0.794-1.245 1.325-0.206 0.419-0.3 0.825-0.95 4.056-0.65 3.25-0.719 3.644-0.694 4.125 0.031 0.8 0.294 1.213 0.95 1.513l0.312 0.144 13.656 0.031 0.157-0.15c0.2-0.201 0.2-0.438 0-0.631l-0.15-0.156h-9.757v-2.214c0-2.136-0.006-2.211-0.131-2.374-0.169-0.213-0.444-0.219-0.649-0.006l-0.157 0.15v4.444l-1.325-0.006c-0.906 0-1.4-0.031-1.55-0.081-0.294-0.106-0.45-0.387-0.444-0.806 0-0.288 1.287-6.838 1.431-7.331 0.15-0.481 0.512-0.938 0.931-1.162 0.306-0.169 2.319-0.899 2.357-0.856l0.593 1.093c0.569 1.051 0.701 1.213 0.982 1.213 0.15 0 0.4-0.294 0.4-0.469 0-0.087-0.237-0.599-0.531-1.131-0.294-0.537-0.531-1-0.531-1.019 0-0.025 0.15-0.093 0.325-0.15 0.262-0.081 0.343-0.087 0.4-0.025 0.037 0.038 0.894 1.6 1.9 3.468 1.075 1.994 1.894 3.445 1.981 3.513 0.232 0.182 0.495 0.163 0.701-0.043 0.087-0.1 0.995-1.7 2-3.569 1.006-1.862 1.856-3.4 1.881-3.419 0.037-0.025 0.612 0.138 0.681 0.194 0.044 0.038-3.781 7.063-3.962 7.269-0.24 0.268-0.588 0.436-0.974 0.436-0.371 0-0.707-0.155-0.945-0.404l-0-0c-0.093-0.1-0.556-0.906-1.038-1.794s-0.925-1.669-0.981-1.738c-0.244-0.262-0.781-0.049-0.781 0.32 0 0.243 1.862 3.6 2.169 3.912 0.536 0.532 1.387 0.77 2.136 0.588 0.419-0.1 0.989-0.482 1.232-0.825 0.105-0.151 1.062-1.869 2.119-3.831 1.724-3.353 2.37-4.527 3.022-5.698l-1.078 2.11c0.037-0.043 2.050 0.688 2.356 0.856 0.313 0.169 0.637 0.512 0.819 0.868 0.112 0.232 0.444 1.776 1.1 5.175 0.506 2.606 0.525 2.888 0.219 3.131-0.244 0.194-0.387 0.213-1.819 0.213h-1.275v-4.444l-0.157-0.15c-0.207-0.213-0.482-0.207-0.65 0.006-0.125 0.163-0.131 0.237-0.131 2.375v2.212h-0.5c-0.457 0-0.519 0.019-0.657 0.156-0.199 0.195-0.199 0.432 0 0.631l0.157 0.157 2.456-0.018c2.407-0.019 2.456-0.019 2.763-0.163 0.656-0.3 0.919-0.713 0.95-1.514 0.025-0.481-0.043-0.868-0.694-4.093-0.393-1.962-0.775-3.719-0.844-3.906-0.163-0.425-0.6-0.995-0.994-1.282-0.387-0.281-0.694-0.407-2.887-1.162-1.75-0.599-1.875-0.656-2.419-1.038l-0.581-0.4v-0.913l0.362-0.237c0.794-0.532 1.55-1.401 2.013-2.332 0.231-0.456 0.506-1.319 0.593-1.844 0.032-0.212 0.050-0.231 0.251-0.231 0.324 0 0.862-0.225 1.168-0.494 0.476-0.425 0.707-1.1 0.545-1.6-0.057-0.175-0.094-0.982-0.119-2.75-0.050-2.825-0.062-2.925-0.531-3.881-0.287-0.582-0.763-1.131-1.232-1.431-0.112-0.075-0.419-0.344-0.681-0.6-1.55-1.514-3.986-2.319-6.306-2.076zM19.412 6.931c0.3 0.425 0.882 0.838 1.382 0.982l0.337 0.1-0.019 0.837-0.019 0.844-0.231 0.131-0.238 0.138-0.169-0.163c-0.331-0.306-0.425-0.324-1.606-0.349-0.612-0.013-1.263-0.007-1.444 0.018-0.381 0.043-0.843 0.319-0.956 0.562-0.069 0.144-0.1 0.157-0.525 0.157-0.45 0-0.456-0.006-0.593-0.218-0.11-0.145-0.245-0.264-0.4-0.353l-0.006-0.003c-0.251-0.131-0.363-0.144-1.482-0.163-1.362-0.026-1.662 0.018-2.025 0.312l-0.244 0.188-0.219-0.112c-0.118-0.069-0.238-0.157-0.251-0.201-0.068-0.169 0.119-0.593 0.382-0.849 0.387-0.387 0.649-0.444 1.612-0.35 2.156 0.219 4.337-0.337 5.894-1.5 0.275-0.201 0.512-0.369 0.531-0.369s0.151 0.163 0.287 0.363zM9.75 11.132v0.825l-0.25-0.038c-0.531-0.069-0.899-0.562-0.75-1.006 0.106-0.325 0.481-0.6 0.831-0.6h0.169v0.819zM22.731 10.469c0.194 0.131 0.393 0.456 0.393 0.656s-0.2 0.525-0.393 0.657c-0.11 0.064-0.238 0.112-0.375 0.136l-0.007 0.001-0.225 0.037v-1.662l0.225 0.038c0.125 0.018 0.294 0.081 0.381 0.137zM14.525 10.475c0.138 0.131 0.144 1.2 0.013 1.456-0.176 0.337-0.325 0.381-1.257 0.381-1.219 0-1.343-0.105-1.343-1.181 0-0.532 0.018-0.638 0.112-0.688 0.062-0.038 0.587-0.069 1.244-0.069 0.95 0 1.15 0.019 1.231 0.1zM19.756 10.438c0.106 0.062 0.119 0.137 0.119 0.756v0.694l-0.212 0.213-0.213 0.212h-0.85c-0.625 0-0.906-0.025-1.031-0.093-0.275-0.137-0.381-0.438-0.381-1.069 0-0.8-0.043-0.775 1.325-0.775 0.656 0 1.168 0.026 1.244 0.062zM11 11.463c0.006 0.8 0.311 1.325 0.969 1.637 0.287 0.137 0.387 0.15 1.312 0.15 0.869 0 1.038-0.018 1.282-0.131 0.624-0.281 1-0.888 1-1.619v-0.375h0.669l0.031 0.457c0.050 0.756 0.394 1.275 1.032 1.557 0.244 0.105 0.4 0.118 1.318 0.099 1.163-0.019 1.319-0.062 1.719-0.469 0.343-0.343 0.444-0.6 0.469-1.237 0.018-0.425 0.043-0.582 0.125-0.644 0.056-0.038 0.119-0.075 0.151-0.075 0.025 0 0.050 0.469 0.050 1.044 0 0.831-0.026 1.156-0.125 1.562-0.349 1.414-1.23 2.579-2.413 3.293l-0.024 0.013c-1.232 0.726-2.888 0.912-4.219 0.482-1.675-0.544-2.95-1.832-3.438-3.488-0.15-0.5-0.175-0.694-0.2-1.775l-0.037-1.207 0.169 0.106c0.156 0.1 0.163 0.138 0.163 0.619zM18.125 18.256c0 0.237-0.056 0.312-1.038 1.406-0.568 0.631-1.062 1.15-1.087 1.15s-0.519-0.519-1.088-1.15c-0.931-1.038-1.038-1.175-1.038-1.375 0-0.125 0.007-0.225 0.019-0.225 0.007 0 0.225 0.056 0.482 0.131 0.957 0.256 2.575 0.212 3.406-0.094 0.35-0.125 0.344-0.131 0.344 0.156zM14.306 20.387c0.519 0.575 0.944 1.069 0.944 1.1 0 0.050-0.875 0.725-1.163 0.899-0.049 0.038-0.294-0.349-0.768-1.231-0.381-0.707-0.694-1.306-0.694-1.332 0.007-0.055 0.644-0.512 0.701-0.493 0.018 0.006 0.463 0.481 0.981 1.056zM19.031 19.544c0.187 0.131 0.337 0.256 0.343 0.287 0 0.025-0.312 0.618-0.694 1.325-0.481 0.881-0.719 1.269-0.769 1.232-0.45-0.269-1.162-0.856-1.137-0.931 0.031-0.081 1.856-2.144 1.9-2.144 0.012 0 0.175 0.106 0.356 0.232zM16.262 22.35c0.263 0.188 0.269 0.201 0.163 0.432-0.062 0.137-0.106 0.156-0.425 0.156s-0.363-0.018-0.425-0.156c-0.033-0.061-0.059-0.133-0.074-0.208l-0.001-0.005c0-0.043 0.437-0.381 0.493-0.381 0.019 0 0.138 0.074 0.269 0.162zM14.806 23.293c0.044 0.112 0.050 0.244 0.019 0.363l-0.056 0.187-0.137-0.268c-0.106-0.213-0.125-0.294-0.062-0.363 0.106-0.125 0.156-0.105 0.237 0.082zM17.431 23.213c0.056 0.068 0.049 0.137-0.038 0.311-0.056 0.125-0.125 0.226-0.15 0.226-0.087 0-0.119-0.306-0.043-0.463 0.080-0.187 0.131-0.2 0.231-0.074zM16.456 24.45l0.163 0.507-0.294 0.556c-0.162 0.3-0.306 0.55-0.324 0.55s-0.163-0.251-0.325-0.55l-0.294-0.556 0.163-0.507 0.169-0.512h0.575l0.169 0.512z"></path>
</symbol>
<symbol id="icon-support" viewBox="0 0 32 32">
<path d="M16.344 0.069c-4.757 0.481-8.913 3.274-11.2 7.524l-0.3 0.562h-0.407c-0.769 0-0.856 0.063-2.544 1.738-1.9 1.887-1.863 1.825-1.863 3.231 0.006 1.038 0.087 1.625 0.387 2.656 0.244 0.856 0.701 1.963 0.844 2.038 0.206 0.106 0.493 0.043 0.637-0.151l0.131-0.175-0.151-0.387c-0.649-1.706-0.862-2.55-0.925-3.676-0.062-1.249-0.112-1.162 1.501-2.787 0.757-0.763 1.475-1.437 1.594-1.494 0.281-0.131 0.756-0.081 1.019 0.106 0.106 0.074 0.825 0.981 1.6 2.012 1.075 1.431 1.412 1.925 1.412 2.063 0 0.144-0.175 0.356-1 1.187-0.556 0.556-1.038 1.075-1.081 1.156-0.038 0.081-0.069 0.288-0.075 0.457 0 0.268 0.043 0.387 0.294 0.794 1.631 2.638 4.268 5.506 6.949 7.524 0.606 0.463 1.975 1.394 2.262 1.544 0.182 0.1 0.707 0.1 0.894 0.006 0.081-0.043 0.6-0.525 1.156-1.081 0.83-0.825 1.044-1 1.187-1 0.137 0 0.631 0.337 2.069 1.418 1.131 0.844 1.943 1.501 2.013 1.619 0.175 0.281 0.219 0.575 0.131 0.875-0.062 0.219-0.318 0.506-1.494 1.675-1.662 1.656-1.562 1.606-2.819 1.537-1.237-0.069-2.474-0.4-3.938-1.062-2.331-1.056-5.387-3.226-7.443-5.294-1.344-1.35-3.095-3.607-4.144-5.35-0.131-0.213-0.275-0.407-0.331-0.425-0.311-0.119-0.649 0.1-0.649 0.425 0 0.463 2.006 3.293 3.631 5.131 1.963 2.218 5.063 4.606 7.813 6.019 2.656 1.362 5.544 1.886 6.837 1.249 0.144-0.074 0.869-0.744 1.731-1.6 1.675-1.662 1.756-1.782 1.763-2.543l0.006-0.439 0.562-0.3c4.069-2.193 6.726-5.968 7.451-10.575 0.131-0.856 0.15-3.044 0.031-3.875-0.268-1.888-0.893-3.719-1.782-5.244-0.756-1.301-1.686-2.475-1.962-2.475-0.074 0-0.212 0.069-0.306 0.144-0.281 0.244-0.237 0.444 0.257 1.050 1.362 1.669 2.35 3.812 2.743 5.956 0.701 3.775-0.3 7.725-2.712 10.756-1.088 1.362-2.756 2.731-4.201 3.444l-0.481 0.237-0.268-0.25c-0.151-0.131-0.363-0.312-0.482-0.4l-0.207-0.156 0.644-0.326c1.256-0.624 2.288-1.381 3.312-2.43 1.699-1.75 2.693-3.645 3.225-6.132 0.162-0.75 0.169-0.899 0.169-2.331s-0.007-1.582-0.169-2.344c-0.432-2.026-1.251-3.782-2.469-5.288-0.519-0.637-1.687-1.756-2.319-2.206-1.426-1.024-3.122-1.772-4.958-2.125l-0.080-0.013c-0.75-0.138-2.724-0.187-3.518-0.087-2.385 0.293-4.509 1.233-6.241 2.636l0.023-0.018c-0.263 0.219-0.513 0.444-0.545 0.507-0.038 0.064-0.060 0.141-0.060 0.223 0 0.129 0.055 0.245 0.142 0.326l0 0c0.243 0.225 0.419 0.176 0.994-0.281 1.687-1.343 3.481-2.131 5.55-2.43 0.994-0.144 2.756-0.095 3.712 0.093 1.488 0.299 3.175 1.025 4.344 1.862 2.544 1.831 4.256 4.694 4.631 7.769 0.081 0.681 0.081 2.069 0 2.75-0.219 1.768-0.944 3.65-1.987 5.124-0.538 0.763-1.875 2.1-2.638 2.638-0.612 0.431-1.619 0.987-2.288 1.256l-0.381 0.151-1.107-0.825c-0.605-0.457-1.194-0.869-1.3-0.912-0.262-0.106-0.775-0.1-1.062 0.025-0.144 0.062-0.588 0.462-1.181 1.068-0.525 0.538-0.995 0.976-1.057 0.976-0.055 0-0.424-0.213-0.818-0.482-2.994-2-5.682-4.675-7.663-7.644-0.244-0.362-0.469-0.718-0.506-0.787-0.063-0.125 0.018-0.225 0.931-1.119 0.625-0.605 1.044-1.069 1.1-1.207 0.125-0.287 0.131-0.8 0.026-1.062-0.044-0.106-0.457-0.694-0.913-1.306l-0.83-1.107 0.125-0.318c0.237-0.6 0.868-1.756 1.269-2.313 0.469-0.65 0.519-0.875 0.243-1.087-0.225-0.176-0.413-0.163-0.618 0.037-0.281 0.287-1.006 1.412-1.356 2.119l-0.331 0.662-0.156-0.207c-0.088-0.118-0.27-0.331-0.4-0.481l-0.251-0.268 0.238-0.482c0.513-1.038 1.4-2.25 2.35-3.207 2.414-2.423 5.754-3.923 9.444-3.923 1.675 0 3.277 0.309 4.754 0.873l-0.091-0.031c1.182 0.438 2.651 1.269 3.582 2.019 0.219 0.175 0.469 0.337 0.55 0.363 0.324 0.080 0.624-0.239 0.537-0.576-0.069-0.287-1.55-1.344-2.775-1.987-1.306-0.688-2.925-1.213-4.437-1.45-0.782-0.119-2.744-0.17-3.532-0.088z"></path>
<path d="M11.719 11.144c-0.562 0.188-0.906 0.476-1.15 0.969-0.2 0.393-0.194 0.688 0.019 0.869 0.093 0.074 0.218 0.144 0.281 0.144 0.188 0 0.419-0.225 0.5-0.494 0.075-0.256 0.337-0.513 0.618-0.6 0.387-0.118 0.957 0.219 1.069 0.637 0.125 0.444-0.118 0.888-1.619 2.925-0.444 0.606-0.825 1.15-0.843 1.213-0.062 0.201 0.081 0.444 0.318 0.544 0.182 0.075 0.494 0.087 1.663 0.075 1.424-0.019 1.437-0.019 1.557-0.169 0.071-0.081 0.114-0.189 0.114-0.306 0-0.121-0.046-0.231-0.121-0.314l0 0c-0.125-0.131-0.182-0.137-1.156-0.137h-1.025l0.819-1.143c0.856-1.187 1.137-1.687 1.231-2.188 0.144-0.769-0.312-1.612-1.038-1.931-0.355-0.156-0.912-0.199-1.237-0.093z"></path>
<path d="M16.65 11.243c-0.244 0.15-0.413 0.369-0.875 1.163-0.887 1.525-1.588 2.825-1.588 2.956 0 0.081 0.069 0.213 0.157 0.294 0.15 0.156 0.163 0.156 1.312 0.156h1.156v0.562c0 0.594 0.088 0.888 0.282 0.963 0.199 0.074 0.387 0.037 0.519-0.106 0.112-0.119 0.137-0.225 0.15-0.763l0.019-0.619 0.206-0.043c0.294-0.056 0.45-0.225 0.45-0.469 0-0.002 0-0.005 0-0.008 0-0.249-0.201-0.452-0.45-0.455h-0.175v-1.456c0-0.793-0.031-1.556-0.063-1.681-0.087-0.306-0.444-0.612-0.706-0.612-0.112 0-0.288 0.056-0.393 0.119zM16.875 13.687v1.188h-0.688c-0.375 0-0.688-0.019-0.688-0.043 0-0.088 1.294-2.332 1.344-2.332 0.018 0 0.031 0.531 0.031 1.187zM21.393 11.219c-0.093 0.062-0.468 0.943-1.231 2.863-0.606 1.525-1.1 2.831-1.1 2.912 0 0.182 0.268 0.444 0.457 0.444 0.108-0.007 0.205-0.048 0.282-0.113l-0.001 0.001c0.137-0.112 2.325-5.55 2.325-5.769 0-0.169-0.275-0.432-0.45-0.432-0.106 0.008-0.202 0.042-0.284 0.096l0.002-0.001zM23.156 11.281c-0.187 0.182-0.199 0.4-0.037 0.6 0.119 0.144 0.15 0.15 1.337 0.182l1.213 0.030-1.018 2.313c-0.619 1.4-1.019 2.394-1.026 2.512 0 0.368 0.419 0.594 0.707 0.375 0.125-0.087 2.544-5.544 2.544-5.738 0-0.069-0.069-0.194-0.156-0.275l-0.151-0.156h-3.262l-0.151 0.156z"></path>
</symbol>
<symbol id="icon-price" viewBox="0 0 32 32">
<path d="M23.156 3.119c-0.8 0.294-0.862 0.344-4.137 3.3-2.25 2.025-2.525 2.301-2.681 2.625l-0.182 0.363-0.018 3.011-0.019 3.018h-3.169l0.213-0.593c0.581-1.625 0.619-3.331 0.106-4.381-0.266-0.546-0.694-0.978-1.221-1.243l-0.015-0.007c-0.519-0.256-0.901-0.306-1.076-0.137-0.062 0.069-0.244 0.675-0.463 1.544-0.199 0.813-0.437 1.619-0.549 1.851-0.257 0.555-0.72 0.999-1.77 1.706-0.931 0.631-1.206 0.899-1.787 1.75-0.445 0.644-0.726 0.919-1.057 1.007-0.431 0.119-0.5 0.099-0.537-0.188-0.062-0.377-0.294-0.689-0.613-0.859l-0.006-0.003c-0.256-0.125-0.374-0.131-1.756-0.131-1.825 0-2.026 0.056-2.301 0.656-0.112 0.237-0.118 0.556-0.118 5.981 0 3.9 0.019 5.787 0.069 5.906 0.080 0.212 0.343 0.5 0.568 0.618 0.244 0.125 3.294 0.125 3.537 0 0.4-0.212 0.637-0.649 0.637-1.187v-0.343l0.426 0.163c0.893 0.343 2.125 0.712 2.819 0.849 0.701 0.131 0.85 0.138 4.757 0.138 2.875 0 4.087-0.019 4.225-0.069 0.15-0.056 0.268-0.056 0.531 0.012 0.281 0.075 1.375 0.088 6.65 0.075l6.313-0.019 0.331-0.15c0.2-0.087 0.444-0.275 0.631-0.476 0.55-0.605 0.512 0.182 0.493-9.781-0.018-9.706 0.013-8.944-0.407-9.444-0.187-0.225-4.817-4.4-5.424-4.899-0.245-0.186-0.521-0.36-0.812-0.51l-0.032-0.015c-0.438-0.213-0.513-0.225-1.156-0.237-0.538-0.013-0.757 0.006-1.001 0.099zM24.906 4.175c0.469 0.225 0.6 0.331 3.5 2.944 1.306 1.175 2.425 2.225 2.487 2.338 0.1 0.188 0.106 0.725 0.106 8.794 0 8.262-0.007 8.605-0.119 8.813-0.083 0.139-0.192 0.254-0.321 0.341l-0.004 0.002c-0.207 0.125-0.337 0.125-6.256 0.144-3.544 0.006-6.050-0.006-6.050-0.043 0-0.032 0.043-0.163 0.099-0.294 0.156-0.356 0.144-1.044-0.025-1.418-0.125-0.288-0.125-0.294-0.012-0.294 0.225 0 0.756-0.238 1.031-0.47 0.182-0.144 0.35-0.368 0.482-0.643 0.182-0.356 0.206-0.481 0.206-0.887s-0.031-0.531-0.2-0.869l-0.194-0.4 0.294-0.287c0.781-0.77 0.843-1.963 0.137-2.769-0.137-0.149-0.291-0.279-0.46-0.388l-0.009-0.006c-0.125-0.069-0.219-0.138-0.207-0.156 0.244-0.413 0.325-0.695 0.325-1.157 0-0.425-0.026-0.556-0.176-0.856-0.212-0.438-0.688-0.874-1.093-1.019-0.163-0.056-0.525-0.118-0.806-0.137l-0.519-0.037v-2.844c0-2.75 0.006-2.857 0.131-3.1 0.087-0.182 0.812-0.869 2.531-2.413 2.882-2.588 2.956-2.65 3.432-2.881 0.249-0.122 0.541-0.193 0.851-0.193 0.304 0 0.591 0.069 0.848 0.191l-0.012-0.005zM12.019 10.413c0.481 0.475 0.637 1.050 0.587 2.15-0.050 1.112-0.419 2.362-0.881 2.962-0.073 0.096-0.136 0.205-0.184 0.322l-0.003 0.010c-0.056 0.182 0.112 0.506 0.294 0.55 0.075 0.018 1.5 0.037 3.169 0.050l3.031 0.012 0.231 0.144c0.251 0.157 0.488 0.569 0.488 0.856s-0.238 0.701-0.488 0.856c-0.225 0.144-0.262 0.144-2.45 0.163-2.162 0.019-2.218 0.026-2.356 0.151-0.144 0.131-0.182 0.375-0.106 0.581 0.106 0.268 0.262 0.281 2.949 0.281 2.557 0 2.557 0 2.769 0.144 0.363 0.244 0.507 0.525 0.482 0.906-0.031 0.35-0.157 0.569-0.45 0.787-0.163 0.125-0.269 0.131-2.863 0.163l-2.688 0.031-0.118 0.15c-0.071 0.084-0.113 0.193-0.113 0.311 0 0.138 0.058 0.263 0.15 0.351l0 0 0.15 0.156h2.331c2.294 0 2.338 0.007 2.582 0.144 0.31 0.183 0.515 0.516 0.515 0.896 0 0.028-0.001 0.055-0.003 0.082l0-0.004c-0.031 0.306-0.182 0.538-0.481 0.738-0.207 0.144-0.225 0.144-2.512 0.144-2.419 0-2.595 0.019-2.7 0.281-0.025 0.061-0.039 0.132-0.039 0.206 0 0.142 0.053 0.272 0.14 0.37l-0.001-0.001c0.131 0.144 0.15 0.144 1.637 0.144 1.332 0 1.538 0.019 1.763 0.119 0.843 0.381 0.806 1.519-0.062 1.85-0.244 0.093-0.657 0.1-4.169 0.075-3.894-0.026-3.901-0.026-4.619-0.182-0.598-0.139-1.089-0.285-1.568-0.456l0.099 0.031c-0.413-0.144-0.969-0.337-1.232-0.432l-0.488-0.162v-8.319l0.432-0.062c0.818-0.131 1.218-0.413 1.855-1.319 0.613-0.874 0.838-1.093 1.65-1.649 0.957-0.65 1.381-1.013 1.719-1.463 0.388-0.519 0.613-1.1 0.919-2.338 0.281-1.162 0.268-1.144 0.631-0.781zM3.8 22.388l0.012 5.613h-2.813v-5.582c0-3.075 0.019-5.607 0.043-5.631 0.026-0.019 0.65-0.032 1.388-0.026l1.35 0.019 0.019 5.607z"></path>
<path d="M23.412 6.25c-0.4 0.156-0.806 0.556-0.981 0.962-0.194 0.463-0.151 1.163 0.106 1.582 0.316 0.523 0.882 0.866 1.528 0.866 0.734 0 1.365-0.445 1.637-1.080l0.004-0.012c0.349-0.8-0.043-1.857-0.856-2.269-0.369-0.194-1.038-0.212-1.438-0.049zM24.481 7.25c0.281 0.169 0.363 0.35 0.337 0.794-0.012 0.219-0.355 0.568-0.605 0.618-0.444 0.081-0.9-0.287-0.9-0.731 0-0.657 0.625-1.019 1.168-0.681zM23.694 13.725c-0.1 0.131-0.131 0.256-0.131 0.556v0.393l-0.287 0.069c-0.751 0.187-1.45 0.75-1.75 1.399-0.156 0.331-0.182 0.469-0.182 0.919 0 0.444 0.026 0.587 0.163 0.881 0.375 0.8 1.119 1.244 2.544 1.525 1.412 0.281 2.013 0.744 2.013 1.557 0 0.675-0.557 1.143-1.526 1.28-1.15 0.163-2.162-0.324-2.443-1.187-0.119-0.35-0.288-0.494-0.569-0.494-0.287 0-0.488 0.262-0.444 0.581 0.050 0.381 0.35 0.893 0.732 1.256 0.393 0.375 0.806 0.606 1.368 0.763l0.381 0.106v0.4c0 0.344 0.025 0.425 0.156 0.55 0.213 0.219 0.538 0.213 0.713-0.006 0.099-0.131 0.131-0.256 0.131-0.55v-0.387l0.45-0.106c0.869-0.2 1.494-0.624 1.832-1.237 0.175-0.313 0.188-0.388 0.188-0.963 0-0.512-0.026-0.681-0.138-0.919-0.212-0.462-0.656-0.893-1.206-1.168-0.45-0.225-0.731-0.306-1.813-0.538-0.599-0.125-1.093-0.375-1.337-0.675-0.175-0.219-0.194-0.287-0.194-0.669 0-0.588 0.2-0.882 0.813-1.187 0.387-0.194 0.487-0.219 0.937-0.219 0.8 0.006 1.294 0.287 1.75 0.994 0.119 0.187 0.281 0.375 0.349 0.419 0.269 0.137 0.681-0.112 0.681-0.413 0-0.251-0.294-0.769-0.637-1.137-0.365-0.363-0.823-0.633-1.335-0.77l-0.021-0.005-0.319-0.081v-0.413c0-0.356-0.018-0.438-0.144-0.55-0.213-0.2-0.556-0.188-0.725 0.025z"></path>
</symbol>
<symbol id="icon-check-list" viewBox="0 0 32 32">
<path d="M3.582 0.088c-1.113 0.267-2.032 1.218-2.262 2.336-0.094 0.438-0.1 23.462-0.006 23.957 0.156 0.843 0.818 1.725 1.6 2.125 0.506 0.25 0.744 0.262 0.944 0.031 0.268-0.312 0.144-0.569-0.382-0.806-0.456-0.213-0.875-0.606-1.082-1.038l-0.174-0.35v-23.812l0.144-0.306c0.23-0.5 0.53-0.825 1-1.050l0.418-0.206 8.774-0.018c9.644-0.019 9.106-0.038 9.706 0.362 0.356 0.238 0.594 0.538 0.775 0.994 0.225 0.556 0.481 0.688 0.806 0.431 0.15-0.119 0.168-0.162 0.144-0.432-0.094-0.955-1.17-2.006-2.288-2.237-0.506-0.106-17.681-0.088-18.118 0.018z"></path>
<path d="M7.438 2.244c-0.456 0.144-0.819 0.462-1.069 0.944-0.138 0.256-0.15 0.356-0.15 1.218 0 0.818 0.019 0.975 0.132 1.218 0.187 0.406 0.431 0.669 0.8 0.862l0.318 0.169h10.438l0.318-0.168c0.369-0.194 0.613-0.456 0.8-0.863 0.112-0.243 0.131-0.406 0.131-1.187 0-0.813-0.018-0.938-0.144-1.219-0.174-0.374-0.387-0.612-0.762-0.831l-0.281-0.168-5.187-0.013c-2.85-0.006-5.256 0.012-5.344 0.038zM17.856 3.25c0.319 0.194 0.362 0.326 0.362 1.157 0 0.862-0.074 1.075-0.431 1.243-0.194 0.088-0.706 0.1-5.094 0.1-5.312 0-5.175 0.006-5.412-0.35-0.094-0.144-0.126-0.318-0.144-0.838-0.025-0.8 0.050-1.088 0.356-1.294l0.213-0.144h4.975c4.818 0 4.981 0.006 5.174 0.125zM23.35 4.269l-0.162 0.162v16.975l-2.987 3c-1.65 1.65-3.056 3.106-3.131 3.231l-0.144 0.238h-5.575c-3.912 0-5.637 0.018-5.781 0.069-0.331 0.118-0.432 0.506-0.194 0.744 0.125 0.125 0.206 0.125 5.656 0.125 3.044 0 5.531 0.018 5.531 0.038 0 0.024-0.088 0.337-0.194 0.7-0.156 0.512-0.187 0.725-0.162 0.981 0.076 0.768 0.682 1.374 1.443 1.45l0.007 0.001c0.269 0.031 0.5-0.019 1.319-0.262 0.544-0.157 1.162-0.376 1.368-0.488 0.319-0.162 1.119-0.938 5.226-5.038 3.918-3.918 4.881-4.912 5-5.162 0.112-0.25 0.144-0.418 0.144-0.844 0-0.737-0.126-0.987-0.882-1.762-0.794-0.806-1.088-0.956-1.832-0.95-0.824 0-0.93 0.075-2.512 1.643l-1.362 1.344v-8.006c0-7.531-0.006-8.012-0.106-8.137-0.083-0.082-0.189-0.142-0.308-0.168l-0.004-0.001c-0.162-0.032-0.232-0.006-0.357 0.118zM28.425 18.469c0.3 0.131 1.119 0.931 1.269 1.25 0.269 0.574 0.112 0.962-0.738 1.794l-0.612 0.612-2.288-2.288 0.65-0.637c0.843-0.825 1.156-0.962 1.718-0.731zM26.582 21.675l1.106 1.106-1.125 1.125-1.138-1.144-1.144-1.138 0.532-0.531c0.287-0.294 0.556-0.531 0.594-0.531s0.562 0.5 1.175 1.112zM23.175 27.3c-1.488 1.488-2.782 2.762-2.869 2.825l-0.157 0.119-1.118-1.119-1.119-1.125 2.838-2.844 2.844-2.843 2.282 2.282-2.7 2.706zM18.706 30.825c-0.775 0.244-0.962 0.269-1.194 0.15-0.2-0.1-0.388-0.382-0.388-0.569 0-0.056 0.088-0.413 0.2-0.788l0.194-0.687 0.869 0.862 0.862 0.862-0.544 0.169z"></path>
<path d="M22.050 25.482c-0.763 0.756-0.863 0.881-0.863 1.062 0 0.269 0.188 0.456 0.456 0.456 0.182 0 0.307-0.1 1.063-0.862 0.718-0.725 0.856-0.894 0.856-1.056 0-0.232-0.225-0.456-0.469-0.456-0.144 0-0.338 0.156-1.044 0.856zM7.375 9.531l-1.282 1.282-0.45-0.45c-0.362-0.356-0.482-0.444-0.638-0.444-0.269 0-0.444 0.176-0.444 0.45 0 0.194 0.069 0.288 0.675 0.894 0.55 0.55 0.706 0.675 0.856 0.675 0.157 0 0.419-0.232 1.7-1.512 1.369-1.363 1.519-1.538 1.519-1.72 0-0.268-0.188-0.456-0.45-0.456-0.175 0-0.35 0.15-1.488 1.282zM11.775 10.088c-0.3 0.13-0.375 0.499-0.15 0.725 0.125 0.125 0.206 0.125 4.15 0.125h4.031l0.125-0.162c0.169-0.219 0.162-0.357-0.018-0.569l-0.15-0.175-3.9-0.013c-3.168-0.012-3.931 0-4.088 0.069zM6.331 14.462c-0.572 0.197-1.027 0.609-1.275 1.137l-0.006 0.013c-0.176 0.381-0.188 1.175-0.026 1.544 0.357 0.824 1.044 1.287 1.912 1.294 0.009 0 0.020 0 0.030 0 0.812 0 1.512-0.482 1.828-1.176l0.005-0.013c0.238-0.512 0.238-1.206-0.006-1.706-0.2-0.418-0.625-0.824-1.031-1.012-0.368-0.156-1.069-0.2-1.431-0.082zM7.431 15.438c1.038 0.525 0.669 2.075-0.494 2.075-0.775 0-1.312-0.762-1.038-1.475 0.158-0.424 0.56-0.721 1.030-0.721 0.183 0 0.355 0.045 0.507 0.124l-0.006-0.003zM11.656 16.094c-0.2 0.194-0.206 0.462-0.012 0.644l0.144 0.138h7.968l0.15-0.157c0.088-0.081 0.156-0.194 0.156-0.243 0-0.175-0.138-0.4-0.294-0.469-0.106-0.050-1.325-0.069-4.056-0.069h-3.906l-0.15 0.156zM6.375 20.369c-0.562 0.182-1.094 0.656-1.331 1.182-0.1 0.218-0.131 0.418-0.131 0.794s0.031 0.575 0.131 0.794c0.174 0.387 0.6 0.838 0.987 1.038 0.275 0.15 0.387 0.168 0.906 0.168s0.631-0.018 0.906-0.168c0.387-0.2 0.812-0.65 0.987-1.038 0.187-0.413 0.187-1.175 0-1.587-0.181-0.394-0.6-0.838-0.987-1.038-0.244-0.125-0.426-0.162-0.813-0.175-0.275-0.013-0.568 0-0.656 0.032zM7.55 21.419c0.576 0.424 0.656 1.144 0.194 1.674-0.232 0.262-0.538 0.369-0.944 0.331-0.656-0.069-1.118-0.737-0.931-1.368 0.088-0.294 0.344-0.606 0.6-0.719 0.269-0.125 0.862-0.082 1.081 0.082zM11.656 22.032c-0.088 0.080-0.156 0.224-0.156 0.312s0.069 0.231 0.156 0.312l0.15 0.157h3.962c3.782 0 3.975-0.006 4.112-0.119 0.2-0.162 0.2-0.538 0-0.7-0.137-0.112-0.33-0.118-4.112-0.118h-3.962l-0.15 0.156z"></path>
</symbol>
<symbol id="icon-lightbulb" viewBox="0 0 32 32">
<path d="M15.7 0.125c-0.194 0.182-0.212 0.369-0.187 2.112l0.018 1.588 0.175 0.15c0.219 0.187 0.369 0.187 0.587 0l0.176-0.15 0.018-1.587c0.012-0.869 0.006-1.675-0.019-1.782-0.075-0.412-0.488-0.587-0.768-0.331zM5 4.562c-0.077 0.086-0.125 0.201-0.125 0.327 0 0.001 0 0.003 0 0.004v-0c0 0.182 0.138 0.338 1.243 1.444 1.088 1.088 1.269 1.244 1.444 1.244 0.256 0 0.456-0.2 0.456-0.456 0-0.176-0.15-0.35-1.243-1.444-1.106-1.1-1.275-1.244-1.45-1.244-0.125 0-0.239 0.048-0.325 0.125l0-0zM25.225 5.682c-1.094 1.094-1.243 1.268-1.243 1.443 0 0.256 0.2 0.456 0.456 0.456 0.175 0 0.356-0.156 1.444-1.243 1.106-1.106 1.243-1.262 1.243-1.444 0-0.269-0.187-0.456-0.45-0.456-0.175 0-0.344 0.144-1.45 1.244zM14.982 5.256c-0.588 0.062-1.626 0.306-2.169 0.512-2.113 0.794-4.044 2.514-5.038 4.494-0.25 0.494-0.256 0.6-0.082 0.825 0.156 0.194 0.488 0.226 0.632 0.050 0.050-0.056 0.224-0.35 0.387-0.644 0.994-1.794 2.65-3.2 4.587-3.894 1.656-0.594 3.738-0.594 5.4 0 2.059 0.747 3.706 2.211 4.671 4.084l0.022 0.047c0.644 1.269 0.919 2.425 0.919 3.9 0 1.387-0.269 2.569-0.862 3.775-0.382 0.768-0.85 1.425-1.682 2.35-0.962 1.075-1.306 1.619-1.525 2.4l-0.1 0.376h-8.157l-0.144-0.414c-0.262-0.787-0.612-1.281-1.868-2.662-0.925-1.018-1.475-1.95-1.882-3.162-0.338-1.018-0.431-1.744-0.381-2.968 0.018-0.576 0.056-1.176 0.074-1.338 0.032-0.243 0.013-0.312-0.1-0.424-0.181-0.182-0.537-0.15-0.694 0.062-0.262 0.362-0.331 2.413-0.125 3.638 0.318 1.808 1.116 3.391 2.257 4.659l-0.008-0.008c1.25 1.394 1.4 1.581 1.632 2.038 0.131 0.268 0.256 0.606 0.281 0.75 0.019 0.15 0.056 1.1 0.082 2.112l0.043 1.85 0.206 0.413c0.131 0.274 0.325 0.525 0.569 0.75l0.362 0.338 0.032 0.531c0.050 0.95 0.53 1.688 1.362 2.082l0.406 0.194h4l0.406-0.194c0.832-0.394 1.312-1.131 1.362-2.082l0.032-0.531 0.362-0.338c0.244-0.225 0.438-0.474 0.569-0.75l0.206-0.413 0.032-2.1c0.030-1.981 0.043-2.112 0.174-2.444 0.181-0.456 0.644-1.106 1.212-1.725 1.569-1.681 2.344-3.181 2.688-5.175 0.106-0.637 0.118-0.918 0.094-1.906-0.050-1.626-0.275-2.538-0.982-3.969-1.553-3.071-4.684-5.139-8.298-5.139-0.342 0-0.679 0.019-1.011 0.055l0.041-0.004zM20.126 25.282v0.781h-0.657c-0.575 0-0.675 0.019-0.782 0.125-0.080 0.084-0.13 0.198-0.13 0.323 0 0.144 0.065 0.272 0.167 0.358l0.001 0.001c0.144 0.112 0.256 0.131 0.782 0.131h0.618v0.168c-0.006 0.232-0.218 0.694-0.425 0.914-0.121 0.121-0.258 0.225-0.409 0.307l-0.009 0.005c-0.244 0.138-0.3 0.138-3.188 0.138s-2.944 0-3.187-0.138c-0.161-0.087-0.298-0.191-0.419-0.312l-0-0c-0.206-0.219-0.418-0.682-0.424-0.913v-0.169h4.868l0.156-0.138c0.226-0.206 0.244-0.469 0.038-0.675-0.118-0.118-0.206-0.125-2.594-0.125h-2.469v-1.562h8.062v0.782zM18.938 29.731c-0.006 0.512-0.469 1.1-0.994 1.256-0.326 0.1-3.376 0.1-3.7 0-0.526-0.156-0.988-0.744-0.994-1.256v-0.231h5.687v0.232z"></path>
<path d="M19.112 11.681c-0.412 0.138-0.65 0.388-2.174 2.35-0.869 1.118-1.6 2.031-1.625 2.031s-0.406-0.4-0.844-0.894c-1.018-1.131-1.175-1.275-1.587-1.394-1.25-0.376-2.35 0.937-1.757 2.1 0.062 0.118 0.582 0.737 1.156 1.374 2.475 2.738 2.419 2.688 3.126 2.688 0.444 0 0.794-0.144 1.069-0.444 0.412-0.444 2.025-2.575 2.062-2.725 0.088-0.344-0.45-0.669-0.731-0.444-0.056 0.044-0.538 0.65-1.075 1.338-0.538 0.694-1.018 1.275-1.075 1.3-0.15 0.056-0.4 0.044-0.518-0.018-0.156-0.088-3.162-3.432-3.219-3.582-0.112-0.312 0.213-0.738 0.569-0.738 0.188 0 0.376 0.175 1.513 1.438 1.094 1.206 1.244 1.331 1.531 1.2 0.075-0.038 0.906-1.050 1.838-2.256 0.938-1.206 1.775-2.244 1.862-2.319 0.432-0.338 1.025 0.138 0.806 0.644-0.044 0.112-0.294 0.469-0.55 0.794-0.544 0.688-0.594 0.8-0.456 1.056 0.112 0.219 0.344 0.306 0.556 0.206 0.157-0.069 1.138-1.281 1.306-1.606 0.344-0.668 0.069-1.544-0.612-1.944-0.306-0.174-0.869-0.25-1.169-0.155zM0.562 15.262c-0.262 0.282-0.094 0.694 0.326 0.769 0.112 0.019 0.918 0.032 1.787 0.019l1.587-0.019 0.15-0.175c0.181-0.212 0.187-0.35 0.018-0.568l-0.125-0.163h-1.806c-1.781 0-1.812 0-1.938 0.138zM27.569 15.288c-0.168 0.218-0.162 0.356 0.019 0.568l0.15 0.176 1.588 0.018c0.868 0.012 1.674 0 1.787-0.019 0.406-0.075 0.581-0.494 0.325-0.768-0.125-0.138-0.156-0.138-1.938-0.138h-1.806l-0.125 0.162zM7.406 23.562c-0.069 0.025-0.669 0.594-1.325 1.262-1.063 1.069-1.206 1.238-1.206 1.413 0 0.262 0.194 0.45 0.456 0.45 0.182 0 0.338-0.138 1.444-1.243 1.088-1.088 1.243-1.269 1.243-1.444 0-0.312-0.337-0.556-0.612-0.438zM24.282 23.562c-0.177 0.064-0.3 0.231-0.3 0.426 0 0.006 0 0.012 0 0.019l-0-0.001c0 0.162 0.174 0.368 1.243 1.438 1.106 1.106 1.262 1.243 1.444 1.243 0.269 0 0.456-0.187 0.456-0.45 0-0.175-0.144-0.344-1.231-1.432-0.681-0.68-1.294-1.25-1.362-1.262-0.028-0.007-0.061-0.011-0.095-0.011-0.056 0-0.109 0.011-0.158 0.030l0.003-0.001z"></path>
</symbol>
<symbol id="icon-line" viewBox="0 0 864 32">
<path fill="none" stroke="#0d5ff9" style="stroke: var(--color1, #0d5ff9)" stroke-linejoin="miter" stroke-linecap="butt" stroke-miterlimit="4" stroke-width="10.6667" d="M10.603 20.395l853.28-10.037"></path>
</symbol>
</defs>
</svg>
