<svg width="55" height="55" fill="none" xmlns="http://www.w3.org/2000/svg"><circle cx="27.5" cy="27.5" r="27.5" fill="#FFF6E8"/><g fill="#0D5FF9"><path d="M20.848 23.015c-.13.123-.147.194-.147.557 0 .363.018.433.147.556.088.094.21.147.322.147a.457.457 0 0 0 .322-.147c.13-.123.147-.193.147-.556 0-.363-.018-.434-.147-.557a.457.457 0 0 0-.322-.146.457.457 0 0 0-.322.146ZM26.471 23.015c-.129.123-.146.194-.146.557 0 .363.017.433.146.556.088.094.211.147.323.147a.456.456 0 0 0 .322-.147c.129-.123.146-.193.146-.556 0-.363-.017-.434-.146-.557a.457.457 0 0 0-.322-.146.457.457 0 0 0-.323.146ZM22.256 27.703c-.686.68 1.09 1.529 2.46 1.172.417-.112.88-.358 1.032-.545.345-.446-.217-1.008-.656-.662-.352.27-.534.328-1.108.328-.574 0-.756-.059-1.107-.328a.454.454 0 0 0-.621.035Z"/><path d="M22.693 13.065c-1.716.234-4.008 1.025-6.457 2.22-1.804.88-1.793.838-.556 2.057l.873.85-.082.234c-.188.545-.252 1.207-.252 2.666v1.453l-.159.088c-.222.117-.45.369-.609.68-.187.351-.228 1.183-.082 1.67.182.638.873 1.142 1.559 1.142.252 0 .228-.053.345.703.141.838.504 1.723 1.05 2.549.292.445 1.16 1.348 1.458 1.523.182.106.188.13.188.475 0 .334-.012.363-.147.398-.088.024-.234.17-.386.405-.135.199-.252.369-.258.38-.006.007-.862.264-1.899.569-1.037.305-2.056.633-2.261.726a5.195 5.195 0 0 0-2.93 3.786c-.07.398-.088 1.02-.088 2.795v2.279l.146.14.141.147H35.15l.147-.147.146-.146-.017-2.508c-.024-2.338-.03-2.531-.153-2.953a5.575 5.575 0 0 0-.85-1.764l-.327-.45h7.617l.14-.147.147-.14V15.63l-.147-.14-.14-.147h-12.24l-.27-.37c-.668-.913-1.869-1.529-3.55-1.822-.663-.117-2.38-.17-2.96-.087Zm2.203.931c1.413.14 2.631.598 3.264 1.219.393.38.569.691.656 1.137.036.17.077.369.094.439.012.07.158.281.322.469.375.427.668.955.862 1.53.14.427.152.526.175 2.015l.024 1.57h-.328c-.276 0-.358-.023-.475-.146-.146-.141-.146-.159-.146-1.16 0-1.272-.065-1.512-.504-1.958-.55-.556-1.213-.62-2.373-.234-1.242.416-2.801.65-4.33.65-1.014 0-1.12-.011-1.612-.158-1.289-.392-2.677-1.271-4.101-2.578l-.41-.38.644-.306c2.496-1.183 4.336-1.816 5.988-2.074.64-.1 1.454-.111 2.25-.035Zm16.166 11.191v8.907h-8.15l-.305-.153a5.908 5.908 0 0 0-.51-.234c-.17-.059.481-.076 4.003-.076l4.207-.006.14-.147.147-.14v-16.3l-.147-.142-.14-.146H30.018l-.13-.193a.885.885 0 0 1-.134-.235c0-.023 2.543-.04 5.654-.04h5.654v8.905Zm-1.406 0v7.5h-5.49c-3.486 0-5.572-.023-5.701-.058-.158-.047-.258-.14-.451-.44-.164-.246-.305-.392-.399-.416-.134-.035-.146-.058-.146-.41 0-.205.023-.375.047-.375.029 0 .252-.17.498-.375 1.072-.92 1.927-2.42 2.15-3.79.035-.241.076-.487.094-.557.017-.106.076-.13.363-.153.604-.058 1.078-.38 1.365-.925.123-.235.141-.346.141-.938s-.018-.703-.14-.938c-.165-.316-.387-.568-.604-.68l-.164-.087v-1.453c0-1.822-.059-2.22-.498-3.305-.041-.094.193-.1 4.447-.1h4.488v7.5Zm-21.89-6.128a8.7 8.7 0 0 0 .474.31c.082.047.082.07-.011.258-.088.164-.112.404-.135 1.36-.03 1.136-.035 1.165-.17 1.277-.094.076-.229.111-.451.111h-.317v-1.336c0-1.166.041-1.752.153-2.139.017-.052.04-.1.058-.1.012 0 .194.118.399.259Zm10.424.726.187.188.03 1.16c.023.973.046 1.19.14 1.377.117.24.586.685.72.685.077 0 .083.24.065 1.682-.023 1.482-.041 1.74-.152 2.133-.575 2.092-2.121 3.615-4.207 4.136-.616.153-1.957.141-2.584-.023-2.063-.545-3.563-2.033-4.131-4.113-.111-.393-.13-.65-.152-2.133-.018-1.441-.012-1.682.064-1.682.135 0 .603-.445.72-.685.094-.188.118-.405.141-1.377.018-.65.053-1.178.088-1.213.041-.035.182-.006.41.094a7.198 7.198 0 0 0 2.051.468c1.483.088 4.518-.369 5.537-.832.135-.058.322-.082.545-.07.293.018.37.047.527.205Zm-11.034 4.47v.95l-.27-.035a.658.658 0 0 1-.456-.211c-.176-.176-.182-.2-.182-.703 0-.475.012-.54.146-.68.176-.193.317-.258.575-.258l.187-.006v.944Zm13.852-.714c.176.176.181.2.181.709 0 .51-.005.533-.181.709a.658.658 0 0 1-.457.21l-.27.036v-1.91l.27.035c.199.018.322.076.457.211Zm-8.754 8.496c1.271.299 2.69.194 3.873-.287l.393-.158.029.357c.017.194.03.358.023.363-.006 0-.65.487-1.43 1.073l-1.423 1.06-1.418-1.06c-.785-.586-1.43-1.072-1.436-1.072-.006-.006.006-.17.024-.364l.029-.357.393.158c.21.088.638.217.943.287Zm-.738 1.922c.726.539 1.318 1.002 1.324 1.02 0 .04-1.272.814-1.342.814-.035 0-1.611-1.84-1.805-2.11-.052-.076-.029-.158.147-.427.117-.182.246-.322.287-.305.035.012.662.469 1.389 1.008Zm6.082-.703c.175.27.199.351.146.428-.193.27-1.77 2.109-1.805 2.109-.07 0-1.341-.773-1.341-.815.006-.04 2.695-2.056 2.748-2.056.017 0 .134.152.252.334Zm-7.834 1.98c.668.803 1.265 1.512 1.33 1.565a.452.452 0 0 0 .263.105c.118 0 .141.024.106.1a1.968 1.968 0 0 0-.07.322c-.03.2-.012.24.193.428l.223.205-.188.95c-.1.515-.193.954-.205.966-.041.035-.979-.275-1.43-.48a7.069 7.069 0 0 1-1.957-1.372c-.832-.843-1.265-1.752-1.324-2.789-.012-.287-.006-.633.024-.755l.052-.229.844-.252c.469-.14.867-.246.885-.24.023.006.586.668 1.254 1.476ZM29.813 34l.85.252.046.228c.03.123.035.47.023.756-.105 1.963-1.71 3.686-4.189 4.512-.27.088-.498.147-.516.129a12.913 12.913 0 0 1-.21-.967l-.188-.95.223-.204c.205-.188.222-.229.193-.428a1.968 1.968 0 0 0-.07-.322c-.036-.082-.012-.1.117-.1.193 0 .17.024 1.64-1.746.645-.78 1.184-1.418 1.202-1.412.017 0 .41.111.878.252Zm-13.916 2.203c.228.897.779 1.816 1.523 2.555 3.176 3.146 9.422 3.146 12.598 0 .55-.551.89-1.026 1.2-1.7.3-.632.417-1.107.464-1.868l.035-.633.48.24c.85.422 1.617 1.266 1.987 2.168.275.685.316 1.078.316 3.17v1.928H12.937v-1.928c0-2.04.042-2.45.288-3.117.357-.95 1.224-1.864 2.191-2.309l.305-.147.035.633c.023.346.088.797.14 1.008Zm8.373-.299.457.281.164.505.164.503-.668.504-.668.498-.668-.498-.668-.504.164-.503.164-.505.457-.28c.258-.159.504-.282.55-.282.048 0 .294.123.552.281Zm-1.137 3.024c.27.199.486.322.586.322.1 0 .316-.123.586-.322.234-.176.445-.322.468-.322.018 0 .1.316.17.709.106.538.123.72.07.773-.099.1-2.49.1-2.59 0-.052-.053-.034-.235.071-.773.07-.393.152-.71.17-.71.023 0 .234.147.469.323Z"/></g></svg>