<svg width="55" height="55" fill="none" xmlns="http://www.w3.org/2000/svg"><circle cx="27.5" cy="27.5" r="27.5" fill="#FEEFF1"/><path d="M26.403 16.2c-.217.029-.598.128-.85.222-.633.235-12.724 6.021-12.965 6.203-.293.223-.527.58-.574.88-.094.644.287 1.131 1.302 1.641l.668.34v5.464l-.281.182c-.61.393-.903 1.15-.716 1.83.094.345.393.755.675.926.14.087.263.181.263.21 0 .042-1.425 4.609-1.507 4.82-.023.07.335.082 2.152.082 1.947 0 2.176-.012 2.146-.088-.093-.246-1.5-4.76-1.5-4.82 0-.034.076-.093.17-.128.562-.24.961-1.173.773-1.853-.1-.387-.387-.78-.71-.979l-.292-.182V28.53c0-1.337.017-2.427.04-2.427.024 0 .435.187.91.422l.867.416v3.64c0 3.607 0 3.642.124 3.847.193.317 1.489 1.571 2.075 2.005a12.9 12.9 0 0 0 6.01 2.433c.892.117 2.686.117 3.578 0 2.24-.305 4.222-1.108 6.01-2.427.64-.475 1.959-1.782 2.1-2.081.087-.194.099-.522.099-3.794v-3.588l2.14-1.05c1.179-.574 2.246-1.13 2.375-1.23.328-.258.551-.745.51-1.085a1.46 1.46 0 0 0-.504-.915c-.352-.305-12.554-6.244-13.111-6.384-.528-.135-1.443-.188-1.977-.112Zm1.765 1.195c.176.053 2.616 1.22 5.424 2.592 2.81 1.372 5.589 2.732 6.169 3.013.586.288 1.085.563 1.102.616.024.058-.005.146-.064.217-.106.117-4.24 2.18-4.51 2.245a.435.435 0 0 0-.199.112c-.035.04-1.806.92-3.946 1.952-2.88 1.395-3.97 1.894-4.228 1.94-.492.088-1.231.077-1.67-.023-.247-.059-1.801-.774-4.487-2.064-2.263-1.084-4.362-2.087-4.667-2.233-.305-.147-.528-.276-.499-.282.035-.012 2.422-.299 5.307-.639 5.647-.662 5.47-.633 5.594-.99.076-.2-.006-.429-.211-.581l-.158-.117-6.087.715c-3.348.393-6.151.715-6.233.721-.2.012-1.613-.68-1.665-.815-.03-.076 0-.135.1-.211.146-.111 11.82-5.746 12.442-6.003a3.37 3.37 0 0 1 1.613-.282c.305.012.697.07.873.117Zm-6.52 11.732c1.93.92 3.63 1.724 3.782 1.782.147.065.493.159.756.211.622.123 1.724.082 2.252-.082.194-.058 1.923-.88 3.847-1.817 1.917-.944 3.506-1.712 3.53-1.712.023 0 .04 1.448.04 3.218v3.22l-.415.445c-1.29 1.378-3.155 2.497-5.09 3.054-2.03.58-4.469.61-6.456.077-1.173-.311-2.545-.927-3.495-1.56-.651-.44-1.665-1.302-2.029-1.73l-.281-.328v-3.224c0-1.777.011-3.23.029-3.23.012 0 1.6.755 3.53 1.676Z" fill="#0D5FF9"/></svg>