<svg width="55" height="55" fill="none" xmlns="http://www.w3.org/2000/svg"><circle cx="27.5" cy="27.5" r="27.5" fill="#F5F4FF"/><path d="M27.21 16.765c-1.747.258-3.141 1.454-3.674 3.159-.194.633-.194 1.822 0 2.46.597 1.917 2.29 3.165 4.3 3.17.774 0 1.248-.105 1.952-.445.937-.45 1.57-1.084 2.05-2.033.358-.709.457-1.225.428-2.115-.023-.574-.058-.809-.187-1.184a4.385 4.385 0 0 0-1.084-1.734c-.721-.72-1.57-1.137-2.602-1.277-.516-.07-.68-.07-1.184 0Zm1.728 1.108a3.55 3.55 0 0 1 2.232 2.238c.182.557.2 1.488.03 1.98-.428 1.266-1.295 2.087-2.543 2.409-1.131.287-2.326-.024-3.211-.85-.463-.427-.727-.838-.944-1.453-.199-.568-.21-1.459-.023-2.039.37-1.16 1.465-2.162 2.613-2.396.475-.094 1.407-.041 1.846.11ZM36.32 19.835c-1.184.27-2.215 1.213-2.585 2.373-.146.446-.175 1.395-.058 1.817a3.63 3.63 0 0 0 .902 1.552c.48.48.803.686 1.395.885.884.299 1.775.229 2.666-.205 2.332-1.154 2.548-4.412.392-5.889-.773-.527-1.828-.732-2.713-.533Zm1.47 1.002c.445.135.75.328 1.102.697 1.166 1.23.767 3.182-.797 3.909-1.02.48-2.338.152-3.018-.745-.369-.48-.48-.843-.486-1.523 0-.54.017-.615.187-.984a2.627 2.627 0 0 1 1.57-1.366c.335-.105 1.067-.1 1.442.012ZM18.22 20.076a3.533 3.533 0 0 0-2.168 1.459 3.392 3.392 0 0 0 .446 4.342c.61.603 1.605 1.02 2.449 1.02 1.459 0 2.865-1.044 3.316-2.462.188-.574.176-1.464-.023-2.039-.211-.603-.475-1.02-.932-1.447a3.416 3.416 0 0 0-3.088-.873Zm1.752 1.12c.703.333 1.137.831 1.36 1.564.351 1.148-.223 2.396-1.342 2.923-.756.352-1.77.276-2.443-.193-.358-.24-.733-.668-.885-1.014-.61-1.335.058-2.882 1.47-3.38.276-.094.457-.118.903-.1.48.012.61.041.937.2ZM27.297 26.175c-1.793.176-3.51.92-4.764 2.069l-.398.369-.569-.27c-.691-.328-1.166-.474-1.857-.568-2.748-.387-5.496 1.312-6.399 3.955-.24.703-.31 1.295-.31 2.549 0 1.154 0 1.16.164 1.47.117.229.24.364.451.492l.281.176 2.971.018 2.977.017.035.235a1.5 1.5 0 0 0 .504.896c.498.452-.13.416 7.617.416 7.746 0 7.12.035 7.617-.416.334-.298.48-.615.516-1.09l.03-.392 2.935-.018c2.086-.011 2.982-.04 3.087-.087.258-.112.592-.44.704-.692.093-.2.111-.398.111-1.383 0-1.248-.07-1.84-.31-2.543a5.924 5.924 0 0 0-3.82-3.738c-1.624-.51-3.517-.281-4.917.586l-.287.182-.363-.311c-1.658-1.406-3.914-2.133-6.006-1.922Zm1.91 1.043a7.164 7.164 0 0 1 5.83 5.607c.1.493.129.868.147 2.057.029 1.576 0 1.834-.252 2.028-.153.123-.182.123-6.932.123-6.709 0-6.785 0-6.932-.118-.252-.199-.275-.386-.252-1.992.018-1.254.041-1.594.147-2.098a7.185 7.185 0 0 1 5.777-5.601c.633-.111 1.828-.117 2.467-.006Zm9.1 1.266a4.996 4.996 0 0 1 3.58 3.591c.1.393.117.65.117 1.676 0 .862-.018 1.225-.07 1.278-.053.052-.78.07-2.924.07h-2.848l-.035-1.014c-.053-1.465-.275-2.361-.897-3.562a8.797 8.797 0 0 0-.585-.967l-.311-.428.193-.123c1.032-.633 2.526-.838 3.78-.521Zm-18.147.369c.498.123 1.277.457 1.277.539 0 .018-.11.187-.24.387-.345.504-.843 1.57-1.02 2.185-.228.785-.322 1.535-.322 2.56v.926H16.99c-2.443 0-2.87-.011-2.935-.087-.053-.065-.065-.428-.047-1.418.023-1.196.04-1.383.158-1.746.574-1.746 1.957-3.012 3.727-3.399.603-.135 1.628-.111 2.267.053Z" fill="#0D5FF9"/></svg>