<svg width="55" height="55" fill="none" xmlns="http://www.w3.org/2000/svg"><circle cx="27.5" cy="27.5" r="27.5" fill="#E5F8F8"/><g fill="#0D5FF9"><path d="M27.535 15.895c-.105.094-.317.422-.51.81-.176.357-.328.656-.334.662 0 0-.31.052-.68.105-.98.147-1.296.346-1.302.844-.006.323.135.546.686 1.08l.493.48-.112.586c-.181.944-.14 1.214.211 1.49.282.222.622.17 1.366-.2l.645-.328.663.334c.75.375.996.399 1.366.117.322-.246.363-.48.217-1.307l-.123-.692.527-.534c.58-.586.716-.832.634-1.19-.094-.428-.358-.557-1.49-.71l-.475-.07-.345-.68c-.4-.78-.58-.95-1.003-.95a.607.607 0 0 0-.434.153Zm.739 1.384c.428.867.51.92 1.477 1.05.293.034.54.081.54.099 0 .017-.223.258-.493.54-.598.603-.615.674-.463 1.541.065.346.094.628.076.628-.023 0-.293-.13-.592-.294-.739-.392-.88-.387-1.642.012-.322.164-.592.287-.603.276-.012-.012.029-.3.087-.64.159-.855.135-.914-.48-1.553l-.516-.534.68-.093c.451-.065.727-.13.832-.206.083-.058.3-.393.475-.738.176-.346.329-.628.335-.628.011 0 .14.246.287.54ZM21.233 18.158c-.258.14-.405.34-.71.938-.175.352-.328.633-.345.633-.135 0-1.273.194-1.413.235-.44.146-.663.656-.463 1.06.052.112.322.429.598.704l.498.51-.094.558c-.14.814-.129 1.049.065 1.278.175.205.457.345.703.345.088.006.457-.146.815-.328l.645-.334.633.334c.856.446 1.232.446 1.542-.017.164-.247.176-.57.041-1.308l-.1-.522.528-.539c.604-.616.727-.868.604-1.237-.123-.37-.37-.504-1.208-.64l-.738-.122-.311-.622c-.37-.738-.622-.997-.956-.997a.858.858 0 0 0-.334.07Zm.645 1.589c.358.72.47.797 1.366.92.328.041.598.094.598.117 0 .024-.223.253-.492.516-.598.575-.628.651-.481 1.53.053.335.082.622.07.634-.012.017-.281-.106-.592-.27-.745-.393-.862-.393-1.624 0-.322.164-.598.282-.616.27-.011-.018.018-.252.065-.522.182-.973.135-1.137-.551-1.741-.223-.2-.41-.387-.41-.41 0-.024.263-.083.586-.124.903-.111 1.02-.187 1.4-.95.177-.345.335-.615.353-.598.017.018.17.3.328.628ZM34.043 18.272c-.152.1-.293.3-.527.763-.176.34-.34.639-.358.656-.018.018-.317.076-.674.123-.974.147-1.314.364-1.314.85 0 .282.153.516.692 1.068l.499.515-.094.546c-.176.961-.112 1.348.252 1.536.334.176.645.117 1.33-.24l.634-.335.645.334c.715.37.932.405 1.26.206.44-.27.499-.493.346-1.384l-.117-.68.493-.504c.686-.698.815-.997.592-1.42-.123-.245-.452-.374-1.243-.498l-.663-.1-.316-.62c-.381-.769-.51-.898-.92-.933-.253-.017-.347.006-.517.117Zm.786 1.449c.293.58.346.65.575.756.14.064.51.146.826.188.31.04.569.088.569.11 0 .019-.229.259-.504.54-.593.598-.622.686-.464 1.548.053.31.088.58.07.592-.017.018-.286-.1-.597-.263-.745-.393-.862-.393-1.624 0-.323.164-.598.287-.61.275-.012-.017.018-.246.065-.522.134-.75.117-.99-.077-1.26a4.404 4.404 0 0 0-.527-.54c-.2-.176-.364-.334-.364-.357 0-.024.264-.082.586-.123.903-.112 1.015-.188 1.407-.95.176-.346.329-.634.335-.634.012 0 .158.288.334.64ZM39.29 23.49c-.141.118-.335.417-.54.833-.176.357-.328.656-.334.662 0 0-.31.053-.68.106-.75.111-1.067.24-1.202.498-.106.2-.117.54-.024.721.036.07.3.364.587.657l.521.528-.129.732c-.123.71-.123.74-.017.956a.844.844 0 0 0 .698.493c.21.023.34-.018.908-.305l.669-.334.627.328c.504.264.686.328.903.328.358 0 .58-.123.704-.375.117-.252.117-.446-.018-1.225l-.106-.634.434-.392c.551-.499.745-.81.704-1.132-.053-.41-.3-.662-.727-.756a24.463 24.463 0 0 0-.721-.117l-.499-.065-.369-.727c-.282-.557-.41-.756-.563-.844-.293-.182-.574-.159-.827.064Zm1.266 2.234c.105.076.375.14.832.205l.68.094-.515.534c-.346.357-.528.592-.552.715-.017.1.012.469.07.82.065.347.1.646.089.657-.006.012-.282-.117-.604-.281-.768-.393-.903-.393-1.63 0-.305.164-.569.281-.586.264-.018-.018.011-.323.07-.674.129-.821.106-.903-.498-1.502-.258-.257-.47-.48-.47-.504 0-.017.247-.07.546-.105.961-.13 1.044-.182 1.477-1.061l.276-.552.334.64c.182.351.399.691.48.75ZM15.987 23.427c-.258.106-.417.305-.739.944-.176.352-.328.633-.346.633-.012 0-.31.041-.657.094-.72.106-1.026.246-1.16.528-.206.44-.047.832.586 1.419l.463.422-.1.633c-.123.762-.123.956-.017 1.213.117.276.34.405.686.4.228-.007.404-.071.914-.34l.633-.34.645.333c.41.206.722.329.845.329.31 0 .68-.247.791-.528.088-.229.088-.282-.023-.95l-.123-.715.521-.528c.294-.293.558-.592.593-.662.164-.323 0-.798-.346-1.009-.106-.058-.47-.146-.886-.21l-.709-.106-.328-.68c-.311-.628-.352-.692-.598-.815-.282-.141-.417-.153-.645-.065Zm.615 1.571c.293.58.352.657.575.757.135.064.504.146.82.187.311.041.57.088.57.106 0 .017-.223.258-.493.54-.287.292-.516.574-.54.674-.023.1 0 .445.06.809.058.351.087.65.075.668-.017.012-.281-.106-.586-.27-.727-.393-.85-.393-1.63 0-.328.159-.604.287-.615.27-.012-.012.017-.24.064-.516.111-.616.111-.95.006-1.155-.047-.088-.281-.352-.528-.592-.246-.235-.44-.44-.434-.446.012-.006.317-.053.686-.105.856-.123.938-.188 1.325-.974.159-.322.293-.592.305-.592.006 0 .159.288.34.64ZM28.081 24.764c-.428.146-.686.363-.867.733-.141.287-.165.422-.206 1.19-.047.926-.158 1.378-.451 1.893-.246.423-.926 1.08-1.806 1.748-.451.34-.985.762-1.184.938l-.37.316v-.527c0-.827.165-.774-2.468-.774-2.146 0-2.158 0-2.28.129-.112.123-.118.193-.118 2.48v2.357l.135.123c.182.17.422.164.598-.018l.146-.14V31.16h3.108v10.085H19.21V36.842l-.147-.141c-.182-.188-.434-.194-.604-.012-.129.135-.129.153-.129 2.656v2.527l.135.123c.135.129.158.129 2.304.129h2.175l.123-.135c.106-.111.13-.205.13-.498v-.358l.222.03c.446.064 1.003.263 1.308.469.72.486.598.463 2.433.48l1.653.018.123-.158c.159-.206.159-.329-.017-.534l-.141-.164-1.548-.03-1.542-.029-.281-.193c-.546-.381-1.185-.622-1.988-.745l-.223-.035v-3.705l.006-3.706.159-.187c.252-.288.85-.798 1.723-1.46 1.044-.792 1.501-1.196 1.865-1.66.633-.791.873-1.483.932-2.702.035-.663.064-.886.146-1.009.206-.31.769-.357 1.027-.082.134.147.299.645.445 1.401.135.68.14.686.34.774.223.094.463.024.569-.176.088-.158.023-.604-.205-1.477-.17-.645-.305-.92-.57-1.173-.421-.41-.972-.521-1.553-.316Z"/><path d="M29.898 29.063c-.164.076-.217.234-.328.956a7.825 7.825 0 0 1-.24 1.026c-.13.369-.153.545-.153 1.096 0 1.067-.176 1.6-.68 2.11-.328.323-.756.528-1.349.628-.498.088-.61.176-.61.475 0 .305.177.41.628.393.727-.024 1.577-.434 2.07-.997.527-.592.75-1.178.803-2.11l.035-.599h1.208l-.088.206c-.112.27-.106.879.017 1.237.065.199.2.386.423.61l.328.322-.147.293c-.21.416-.2.99.018 1.419.088.17.14.31.111.31-.03 0-.158.094-.293.206-.803.692-.715 2.11.176 2.69l.147.095-.13.264c-.228.44-.24.814-.058 1.418.041.123.03.123-.698.147-.662.017-.75.03-.862.146-.17.17-.164.475.012.616.111.1.323.106 2.539.106h2.41l.293-.141c.838-.399 1.225-1.407.856-2.246l-.135-.299.275-.252c.294-.27.458-.54.528-.873a2.063 2.063 0 0 0-.094-1.12l-.129-.293.14-.1c.67-.463.916-1.419.558-2.146a2.055 2.055 0 0 0-.422-.55l-.258-.236.129-.28c.094-.206.129-.405.129-.699.006-.686-.329-1.22-.98-1.565-.246-.135-.269-.135-3.054-.152l-2.803-.018.036-.129c.1-.328.27-1.302.27-1.513 0-.17-.042-.275-.147-.375-.153-.158-.276-.176-.48-.076Zm5.84 3.084c.58.293.615 1.038.07 1.401-.194.13-.235.135-1.736.135-1.5 0-1.541-.006-1.735-.135-.545-.363-.51-1.108.07-1.401.176-.094.387-.106 1.666-.106 1.278 0 1.489.012 1.665.106Zm.557 2.497c.545.23.656.927.205 1.36l-.176.17-1.6.018c-1.584.018-1.595.018-1.795-.117-.55-.364-.51-1.132.07-1.413.264-.135 2.99-.146 3.296-.018Zm-.727 2.475c.263.052.568.363.615.627.059.299 0 .48-.234.733l-.194.217h-3.347l-.177-.17c-.216-.211-.322-.505-.275-.774.047-.229.375-.587.575-.628.217-.04 2.831-.046 3.037-.005Zm-.47 2.58c.282.11.47.357.51.662.036.27-.076.516-.34.733l-.187.158-1.044-.018-1.043-.017-.176-.17c-.452-.434-.352-1.085.2-1.331.322-.147 1.723-.158 2.08-.018ZM20.236 33.006c-.14.135-.146.176-.146.868 0 .68.006.733.135.85.193.182.469.17.621-.023.112-.141.123-.235.123-.856 0-.663-.006-.704-.146-.839a.483.483 0 0 0-.293-.146.483.483 0 0 0-.294.146Z"/></g></svg>