<svg width="1513" height="462" fill="none" xmlns="http://www.w3.org/2000/svg"><mask id="b" maskUnits="userSpaceOnUse" x="-25" y="-1" width="1538" height="463" fill="#000"><path fill="#fff" d="M-25-1h1538v463H-25z"/><path fill-rule="evenodd" clip-rule="evenodd" d="m0 123.243 40.92-22.411c42.16-22.411 124-67.233 207.08-74.704 83.08-7.47 164.92 22.411 248 82.175 83.08 59.763 164.92 149.407 248 194.23 83.08 44.822 164.92 44.822 248 7.47 83.08-37.352 164.92-112.056 248-134.467 83.08-22.411 164.92 7.47 207.08 22.411l40.92 14.941V437H0V123.243Z"/></mask><path d="m0 123.243-12.009-21.927L-25 108.431v14.812H0Zm40.92-22.411L29.185 78.757l-.137.073-.137.075 12.009 21.927Zm1406.16 97.115 8.57-23.483-.11-.041-.11-.04-8.35 23.564Zm40.92 14.941h25v-17.486l-16.43-5.998-8.57 23.484ZM1488 437v25h25v-25h-25ZM0 437h-25v25H0v-25Zm12.009-291.83 40.92-22.411L28.91 78.905l-40.92 22.411L12.01 145.17Zm40.645-22.263C95.75 99.999 173.077 57.966 250.24 51.027L245.761 1.23C156.763 9.23 70.41 56.843 29.185 78.757l23.47 44.15Zm197.585-71.88c75.127-6.755 151.07 19.956 231.162 77.57l29.198-40.59C424.531 26.096 336.794-6.956 245.761 1.23l4.478 49.799Zm231.162 77.57c40.379 29.046 80.322 65.252 122.291 101.372 41.198 35.457 84.253 70.728 128.438 94.566l23.74-44.004c-38.895-20.985-78.3-52.947-119.562-88.459-40.491-34.848-83.008-73.347-125.709-104.064l-29.198 40.589ZM732.13 324.535c90.362 48.751 180.408 48.604 270.12 8.27l-20.501-45.603c-76.447 34.369-150.081 34.222-225.879-6.671l-23.74 44.004Zm270.12 8.27c43.65-19.624 87.01-49.079 127.14-74.526 41.35-26.225 79.68-48.505 117.12-58.606l-13.02-48.274c-45.64 12.311-89.77 38.588-130.88 64.655-42.33 26.846-81.43 53.42-120.861 71.148l20.501 45.603Zm244.26-133.132c74.53-20.104 149.19 6.59 192.22 21.838l16.7-47.128c-41.29-14.633-130.31-47.702-221.94-22.984l13.02 48.274Zm192 21.758 40.92 14.941 17.14-46.968-40.92-14.94-17.14 46.967Zm24.49-8.543V437h50V212.888h-50ZM1488 412h-40.92v50H1488v-50Zm-40.92 0H1240v50h207.08v-50ZM1240 412H992v50H1240v-50Zm-248 0H744v50H992v-50Zm-248 0H496v50H744v-50Zm-248 0H248v50H496v-50Zm-248 0H40.92v50H248v-50Zm-207.08 0H0v50h40.92v-50ZM25 437V123.243h-50V437h50Z" fill="url(#a)" fill-opacity=".05" mask="url(#b)"/><defs><linearGradient id="a" x1="744" y1="25" x2="744" y2="437" gradientUnits="userSpaceOnUse"><stop offset=".182" stop-color="#0D5FF9"/><stop offset=".844" stop-color="#fff"/></linearGradient></defs></svg>